<?xml version="1.0" encoding="utf-8"?>
<!-- Generator: Adobe Illustrator 18.0.0, SVG Export Plug-In . SVG Version: 6.00 Build 0)  -->
<!DOCTYPE svg PUBLIC "-//W3C//DTD SVG 1.1//EN" "http://www.w3.org/Graphics/SVG/1.1/DTD/svg11.dtd">
<svg version="1.1" id="Layer_1" xmlns="http://www.w3.org/2000/svg" xmlns:xlink="http://www.w3.org/1999/xlink" x="0px" y="0px"
	 viewBox="0 0 566 560" enable-background="new 0 0 566 560" xml:space="preserve">
<g>
	<text transform="matrix(1 0 0 1 50.5403 236.9998)"><tspan x="0" y="0" fill="#3050B7" font-family="'ArialMT'" font-size="13.6558">For OD Matrix</tspan><tspan x="-7.2" y="16.4" fill="#3050B7" font-family="'ArialMT'" font-size="13.6558">with Travel Time</tspan></text>
</g>
<g>
	<text transform="matrix(1 0 0 1 374.9274 237.0004)"><tspan x="0" y="0" fill="#3050B7" font-family="'ArialMT'" font-size="13.6558">For selective</tspan><tspan x="0" y="16.4" fill="#3050B7" font-family="'ArialMT'" font-size="13.6558">Vehicle priority,</tspan><tspan x="0" y="32.8" fill="#3050B7" font-family="'ArialMT'" font-size="13.6558">green corridor</tspan></text>
</g>
<g>
	<path fill="#424A60" d="M76.1,17.8c-14.7,0-27,3.6-30.4,8.4c-7.9,1.9-13.4,5-14,8.6l0,0h-0.1v0.7v15.1v0.7v0.7v14.4V67v0.7v15.7
		h0.1c1,5.8,14.6,10.5,31.3,10.5c14.7,0,27-3.6,30.4-8.4c7.9-1.9,13.4-5,14-8.6h0.1V60.9v-0.7V45.2v-0.7V28.8
		C107.5,22.7,93.4,17.8,76.1,17.8z"/>
	<g>
		<path fill="#424A60" d="M63,78c-17.3,0-31.4-5-31.4-11.1v16.3h0.1c1,5.8,14.6,10.5,31.3,10.5S93.3,89,94.3,83.2h0.1V66.9
			C94.4,72.9,80.3,78,63,78z"/>
		<path fill="#424A60" d="M31.6,66.1v0.7C31.6,66.6,31.7,66.4,31.6,66.1L31.6,66.1z"/>
		<path fill="#424A60" d="M94.3,66.1c0,0.2,0.1,0.5,0.1,0.7L94.3,66.1L94.3,66.1z"/>
	</g>
	<g>
		<path fill="#556080" d="M63,62.2c-17.3,0-31.4-5-31.4-11.1v16.3h0.1C32.7,73.3,46.3,78,63,78s30.3-4.7,31.3-10.5h0.1V51.2
			C94.4,57.3,80.3,62.2,63,62.2z"/>
		<path fill="#556080" d="M31.6,50.5v0.7C31.6,50.9,31.7,50.7,31.6,50.5L31.6,50.5z"/>
		<path fill="#556080" d="M94.3,50.5c0,0.2,0.1,0.5,0.1,0.7L94.3,50.5L94.3,50.5z"/>
	</g>
	<ellipse fill="#7FABDA" cx="63" cy="35.4" rx="31.4" ry="11.1"/>
	<g>
		<path fill="#7383BF" d="M63,46.6c-17.3,0-31.4-5-31.4-11.1v16.3h0.1c1,5.8,14.6,10.5,31.3,10.5s30.3-4.7,31.3-10.5h0.1V35.4
			C94.4,41.6,80.3,46.6,63,46.6z"/>
		<path fill="#7383BF" d="M31.6,34.8v0.7C31.6,35.2,31.7,35,31.6,34.8L31.6,34.8z"/>
		<path fill="#7383BF" d="M94.3,34.8c0,0.2,0.1,0.5,0.1,0.7L94.3,34.8L94.3,34.8z"/>
	</g>
	<path fill="#88C057" d="M76.1,17.8c-14.7,0-27,3.6-30.4,8.4c5-1.1,10.9-1.8,17.3-1.8c16.7,0,30.3,4.7,31.3,10.5h0.1v0.7V38
		c7.9-2,13.1-5.3,13.1-9C107.5,22.7,93.4,17.8,76.1,17.8z"/>
	<path fill="#61B872" d="M94.4,37.9v12.5v0.7v0.7v1.8c7.4-1.9,12.5-4.9,13-8.4h0.1V28.9C107.5,32.6,102.3,35.9,94.4,37.9z"/>
	<path fill="#25AE88" d="M94.4,53.6v12.5v0.7v0.7v1.8c7.4-1.9,12.5-4.9,13-8.4h0.1V44.6C107.5,48.3,102.3,51.6,94.4,53.6z"/>
	<path fill="#1A9172" d="M94.4,69.3v13.8h-0.1c-0.2,0.7-0.5,1.4-0.9,2.1c7.9-1.9,13.4-5,14-8.6h0.1V60.2
		C107.5,64,102.3,67.3,94.4,69.3z"/>
</g>
<g>
	<path fill="#67B9CC" d="M239.7,59.2c-0.5,1.6-1.6,3.1-2.7,4.4c-2.5,2.5-6.2,3.6-9.6,3.3l-9.6-5.8l1.5-1.6l10.2-12l10.7,4
		C240.6,53.7,240.6,56.7,239.7,59.2z"/>
	<path fill="#2FA8CC" d="M236.9,63.4c-2.5,2.5-6.2,3.6-9.6,3.3l-9.6-5.8l1.5-1.6l3.3-0.4C222,58.8,232,56.8,236.9,63.4z"/>
	<path fill="#7F8C8D" d="M183.8,67.7v8.9c0,2.9-2.4,5.3-5.3,5.3h-7.8v-5.3h5.3c1.5,0,2.5-1.1,2.5-2.5v-8L183.8,67.7z"/>
	<g>
		<path fill="#3F5C6C" d="M170.8,89.7c-0.7,0-1.3-0.5-1.3-1.3V70.1c0-0.7,0.5-1.3,1.3-1.3c0.7,0,1.3,0.5,1.3,1.3v18.4
			C172,89,171.5,89.7,170.8,89.7z"/>
		<path fill="#3F5C6C" d="M244.2,44.3l-59.1-22c-2.7-1.1-5.6,0.4-6.7,3.1l-3.3,8.5l-0.9,2.5l-1.3,3.6l-1.8,4.9
			c-0.4,1.3-0.4,2.7,0.2,4c0.5,1.3,1.6,2.2,2.9,2.7l1.1,0.4l-0.4,7.3c0,0.5,0.4,1.1,0.9,1.3l9.6,3.5l-8.2-3.1
			c-0.9,2.7,0.4,5.6,3.3,6.5c2.5,1.1,5.6-0.4,6.7-2.9l1.8,0.7c0.5,0.2,1.1,0,1.5-0.4l4.5-5.6l28.2,10.4c0.5,0.4,1.3,0.2,2,0
			c0.5-0.4,1.1-0.9,1.3-1.5l2.7-7.5l15.5-14.5c0.4-0.4,0.4-0.7,0.4-1.1C244.9,44.7,244.8,44.5,244.2,44.3z"/>
		<path fill="#3F5C6C" d="M244.8,46.3l-15.5,14.5l-56.2-20.9l1.3-3.6l0.9-2.5l3.3-8.5c1.1-2.7,4-4,6.7-3.1l59.1,22
			c0.4,0.2,0.7,0.5,0.9,1.1C245.3,45.6,245.1,46.1,244.8,46.3z"/>
	</g>
	<path fill="#35495E" d="M173.1,39.9l56.2,20.9l-2.7,7.5c-0.4,0.5-0.7,1.1-1.3,1.5c-0.5,0.4-1.3,0.4-2,0l-49.1-18.4
		c-2.7-1.1-4-4-3.1-6.7L173.1,39.9z"/>
	<path fill="#67B9CC" d="M226.2,55.4c-0.2,0-0.4,0-0.4-0.2l-1.1-0.4c-0.4-0.2-0.7-0.5-0.9-1.1c-0.2-0.4,0.2-0.9,0.4-1.1
		c0.4-0.4,0.9-0.4,1.3-0.2l1.1,0.4c0.5,0.4,1.1,0.9,0.9,1.5C227.3,55,226.9,55.4,226.2,55.4z"/>
	<path fill="#67B9CC" d="M221.3,52.3c-0.2,0.5-0.7,0.9-1.1,0.9c-0.2,0-0.4,0-0.4-0.2l-45.3-16.9l0.9-2.5l45.3,16.9
		C221.1,51,221.5,51.7,221.3,52.3z"/>
	<path fill="#2C3E50" d="M188.9,65.4l-13.1-4.7c-0.5-0.2-0.9-0.7-0.9-1.3l0.4-7.5l19.6,7.5l-4.7,5.8
		C190.2,65.4,189.7,65.4,188.9,65.4z"/>
	<path fill="#95A5A5" d="M187.3,64.6c-1.1,2.5-4,4-6.7,2.9c-2.5-1.1-4-4-3.3-6.7L187.3,64.6z"/>
</g>
<line fill="#3050B7" stroke="#000000" stroke-width="4" stroke-miterlimit="10" x1="100.4" y1="148.4" x2="223.8" y2="298.3"/>
<line fill="#3050B7" stroke="#000000" stroke-width="4" stroke-miterlimit="10" x1="223.8" y1="148.4" x2="276.7" y2="291"/>
<line fill="#3050B7" stroke="#000000" stroke-width="4" stroke-miterlimit="10" x1="386.3" y1="183" x2="315.5" y2="291"/>
<line fill="#3050B7" stroke="#000000" stroke-width="4" stroke-miterlimit="10" x1="273.3" y1="323" x2="273.3" y2="396.1"/>
<path fill="#CCCCCC" d="M337.9,331.2H215.5c-2.5,0-4.5-2-4.5-4.5V288c0-2.5,2-4.5,4.5-4.5h122.4c2.5,0,4.5,2,4.5,4.5v38.6
	C342.4,329.2,340.4,331.2,337.9,331.2z"/>
<g>
	<g>
		<path fill="#424A60" d="M306.2,542.9h-71.3c-5.5,0-9.7-4.2-9.7-9.7V388.5c0-5.5,4.2-9.7,9.7-9.7h71.3c5.5,0,9.7,4.2,9.7,9.7v144.8
			C315.9,538.7,311.3,542.9,306.2,542.9z"/>
		<rect x="225.2" y="396.1" fill="#E7ECED" width="90.3" height="113.1"/>
		<circle fill="#262B35" cx="270.3" cy="526.1" r="8.4"/>
		<path fill="#262B35" d="M270.3,390.2h-11.4c-1.7,0-3-1.3-3-3c0-1.7,1.3-3,3-3h11.4c1.7,0,3,1.3,3,3
			C273.3,388.9,272,390.2,270.3,390.2z"/>
		<path fill="#262B35" d="M281.7,390.2h-3c-1.7,0-3-1.3-3-3c0-1.7,1.3-3,3-3h3c1.7,0,3,1.3,3,3S283.4,390.2,281.7,390.2z"/>
	</g>
	<text transform="matrix(1 0 0 1 246.4594 436.6153)"><tspan x="0" y="0" fill="#1A94D8" font-family="'MyriadPro-Regular'" font-size="16.8151">Citizen</tspan><tspan x="-0.3" y="20.2" fill="#1A94D8" font-family="'MyriadPro-Regular'" font-size="16.8151">Mobile</tspan><tspan x="-16.4" y="40.4" fill="#1A94D8" font-family="'MyriadPro-Regular'" font-size="16.8151">Application</tspan></text>
</g>
<g>
	<path fill="#D5E8D4" d="M115.2,158H23.8c-2.5,0-4.5-2-4.5-4.5v-40c0-2.5,2-4.5,4.5-4.5h91.4c2.5,0,4.5,2,4.5,4.5v40
		C119.7,156,117.7,158,115.2,158z"/>
	<g>
		<text transform="matrix(1 0 0 1 43.7249 129.7829)"><tspan x="0" y="0" fill="#3050B7" font-family="'ArialMT'" font-size="13.6558">Detector</tspan><tspan x="11.4" y="16.4" fill="#3050B7" font-family="'ArialMT'" font-size="13.6558">Data</tspan></text>
	</g>
</g>
<g>
	<path fill="#F8CECC" d="M253.1,158h-91.4c-2.5,0-4.5-2-4.5-4.5v-40c0-2.5,2-4.5,4.5-4.5h91.4c2.5,0,4.5,2,4.5,4.5v40
		C257.6,156,255.6,158,253.1,158z"/>
	<g>
		<text transform="matrix(1 0 0 1 172.1039 129.7828)"><tspan x="0" y="0" fill="#3050B7" font-family="'ArialMT'" font-size="13.6558">ANPR Data</tspan><tspan x="-2.3" y="16.4" fill="#3050B7" font-family="'ArialMT'" font-size="13.6558">for Cameras</tspan></text>
	</g>
</g>
<g>
	<linearGradient id="SVGID_1_" gradientUnits="userSpaceOnUse" x1="418.874" y1="190.4608" x2="418.874" y2="76.4609">
		<stop  offset="0" style="stop-color:#D5749E"/>
		<stop  offset="1" style="stop-color:#E5CCDB"/>
	</linearGradient>
	<path fill="url(#SVGID_1_)" d="M548.6,190.5H289.2c-3.3,0-6-2.7-6-6V82.4c0-3.3,2.7-6,6-6h259.4c3.3,0,6,2.7,6,6v102.1
		C554.5,187.8,551.8,190.5,548.6,190.5z"/>
	<g>
		<text transform="matrix(1 0 0 1 388.1351 107.9273)" fill="#3050B7" font-family="'ArialMT'" font-size="13.6558">GPS Data</text>
	</g>
	<g>
		<path fill="#FFF2CC" d="M405.9,172.9H305.3c-3.4,0-6.2-2.8-6.2-6.2v-36.6c0-3.4,2.8-6.2,6.2-6.2h100.6c3.4,0,6.2,2.8,6.2,6.2v36.6
			C412.1,170.2,409.3,172.9,405.9,172.9z"/>
		<path fill="#FFF2CC" d="M533.5,172.9H432.9c-3.4,0-6.2-2.8-6.2-6.2v-36.6c0-3.4,2.8-6.2,6.2-6.2h100.6c3.4,0,6.2,2.8,6.2,6.2v36.6
			C539.7,170.2,536.9,172.9,533.5,172.9z"/>
		<g>
			<text transform="matrix(1 0 0 1 304.0098 144.7493)"><tspan x="0" y="0" fill="#3050B7" font-family="'ArialMT'" font-size="13.6558">Public Transport </tspan><tspan x="32.6" y="16.4" fill="#3050B7" font-family="'ArialMT'" font-size="13.6558">Buses</tspan></text>
		</g>
		<g>
			<text transform="matrix(1 0 0 1 448.6797 144.7493)"><tspan x="0" y="0" fill="#3050B7" font-family="'ArialMT'" font-size="13.6558">Emergency</tspan><tspan x="8.7" y="16.4" fill="#3050B7" font-family="'ArialMT'" font-size="13.6558">Vehicles</tspan></text>
		</g>
	</g>
</g>
<g>
	<text transform="matrix(1 0 0 1 223.1877 310.8692)" fill="#3050B7" font-family="'ArialMT'" font-size="13.6558">ATCS Application</text>
</g>
<g>
	<path fill="#91AEE2" d="M462.5,27.4v56.7c0,1-0.8,1.8-1.8,1.8h-83.8c-1,0-1.8-0.8-1.8-1.8V27.4c0-1,0.8-1.8,1.8-1.8h83.8
		C461.6,25.6,462.5,26.4,462.5,27.4z"/>
	<path fill="#BACBEC" d="M462.5,27.4v53.7h-81c-1,0-1.8-0.8-1.8-1.8V25.6h81C461.6,25.6,462.5,26.4,462.5,27.4z"/>
	<path fill="#4172CC" d="M457.9,66.5v13.6c0,0.5-0.3,0.8-0.8,0.8h-40.9c-0.5,0-0.8-0.3-0.8-0.8V66.5c0-0.5,0.3-0.8,0.8-0.8h40.9
		C457.6,65.5,457.9,66,457.9,66.5z"/>
	<path fill="#274C91" d="M447,74.6v6.4h-2.7v-6.4c0-0.7,0.7-1.3,1.3-1.3C446.4,73.2,447,73.9,447,74.6z"/>
	<path fill="#274C91" d="M453.1,74.6v6.4h-2.7v-6.4c0-0.7,0.7-1.3,1.3-1.3C452.4,73.2,453.1,73.9,453.1,74.6z"/>
	<path fill="#1AB975" d="M406.8,78.4h-7.4c-0.8,0-1.5-0.7-1.5-1.5v-7.4c0-0.8,0.7-1.5,1.5-1.5h7.4c0.8,0,1.5,0.7,1.5,1.5v7.4
		C408.1,77.7,407.5,78.4,406.8,78.4z"/>
	<path fill="#1AB975" d="M386.3,78.4c-2.9,0-5-2.3-5-5s2.3-5,5-5c2.9,0,5,2.3,5,5S389.2,78.4,386.3,78.4z"/>
	<path fill="#F44545" d="M415.8,34.3c0,1.2-1,2.2-2.2,2.2c-1.2,0-2.2-1-2.2-2.2c0-1.2,1-2.2,2.2-2.2
		C414.8,32.1,415.8,33.1,415.8,34.3z"/>
	<path fill="#F44545" d="M423.7,34.3c0,1.2-1,2.2-2.2,2.2c-1.2,0-2.2-1-2.2-2.2c0-1.2,1-2.2,2.2-2.2
		C422.7,32.1,423.7,33.1,423.7,34.3z"/>
	<path fill="#F44545" d="M431.8,34.3c0,1.2-1,2.2-2.2,2.2c-1.2,0-2.2-1-2.2-2.2c0-1.2,1-2.2,2.2-2.2
		C430.8,32.1,431.8,33.1,431.8,34.3z"/>
	<path fill="#4172CC" d="M413.5,39.2c-0.7,0-1.3,0.7-1.3,1.3V61c0,0.7,0.7,1.3,1.3,1.3c0.7,0,1.3-0.7,1.3-1.3V40.5
		C414.8,39.8,414.3,39.2,413.5,39.2z"/>
	<path fill="#4172CC" d="M421.5,39.2c-0.7,0-1.3,0.7-1.3,1.3V61c0,0.7,0.7,1.3,1.3,1.3c0.7,0,1.3-0.7,1.3-1.3V40.5
		C422.9,39.8,422.2,39.2,421.5,39.2z"/>
	<path fill="#4172CC" d="M429.4,39.2c-0.7,0-1.3,0.7-1.3,1.3V61c0,0.7,0.7,1.3,1.3,1.3c0.7,0,1.3-0.7,1.3-1.3V40.5
		C430.8,39.8,430.3,39.2,429.4,39.2z"/>
	<path fill="#4172CC" d="M437.5,39.2c-0.7,0-1.3,0.7-1.3,1.3V61c0,0.7,0.7,1.3,1.3,1.3c0.7,0,1.3-0.7,1.3-1.3V40.5
		C438.8,39.8,438.1,39.2,437.5,39.2z"/>
	<path fill="#F44545" d="M439.7,34.3c0,1.2-1,2.2-2.2,2.2s-2.2-1-2.2-2.2c0-1.2,1-2.2,2.2-2.2C438.6,32.1,439.7,33.1,439.7,34.3z"/>
	<g>
		<path fill="#4172CC" d="M456.4,45.9h-10.7c-0.8,0-1.5-0.7-1.5-1.5v-3.7c0-0.8,0.7-1.5,1.5-1.5h10.7c0.8,0,1.5,0.7,1.5,1.5v3.7
			C457.9,45.2,457.3,45.9,456.4,45.9z"/>
		<path fill="#4172CC" d="M456.4,57.5h-10.7c-0.8,0-1.5-0.7-1.5-1.5v-3.7c0-0.8,0.7-1.5,1.5-1.5h10.7c0.8,0,1.5,0.7,1.5,1.5v3.7
			C457.9,56.8,457.3,57.5,456.4,57.5z"/>
		<path fill="#4172CC" d="M384.7,62.8h-4c-0.5,0-0.8-0.3-0.8-0.8V31.6c0-0.5,0.3-0.8,0.8-0.8h4c0.5,0,0.8,0.3,0.8,0.8V62
			C385.5,62.5,385.2,62.8,384.7,62.8z"/>
		<path fill="#4172CC" d="M394.9,62.8h-4c-0.5,0-0.8-0.3-0.8-0.8V31.6c0-0.5,0.3-0.8,0.8-0.8h4c0.5,0,0.8,0.3,0.8,0.8V62
			C395.9,62.5,395.4,62.8,394.9,62.8z"/>
		<path fill="#4172CC" d="M405.3,62.8h-4c-0.5,0-0.8-0.3-0.8-0.8V31.6c0-0.5,0.3-0.8,0.8-0.8h4c0.5,0,0.8,0.3,0.8,0.8V62
			C406.1,62.5,405.8,62.8,405.3,62.8z"/>
	</g>
</g>
</svg>
