<?xml version="1.0" encoding="utf-8"?>
<!-- Generator: Adobe Illustrator 18.0.0, SVG Export Plug-In . SVG Version: 6.00 Build 0)  -->
<!DOCTYPE svg PUBLIC "-//W3C//DTD SVG 1.1//EN" "http://www.w3.org/Graphics/SVG/1.1/DTD/svg11.dtd">
<svg version="1.1" id="Layer_1" xmlns="http://www.w3.org/2000/svg" xmlns:xlink="http://www.w3.org/1999/xlink" x="0px" y="0px"
	 viewBox="0 0 669.6 492.1" enable-background="new 0 0 669.6 492.1" xml:space="preserve">
<pattern  y="560" width="361.2" height="361.2" patternUnits="userSpaceOnUse" id="SVGID_29_" viewBox="0 -361.2 361.2 361.2" overflow="visible">
	<g>
		<polygon fill="none" points="0,0 361.2,0 361.2,-361.2 0,-361.2 		"/>
		<g>
			<polygon fill="none" points="0,-361.2 361.2,-361.2 361.2,0 0,0 			"/>
			<g>
				<polygon fill="none" points="0,-361.2 361.2,-361.2 361.2,0 0,0 				"/>
				<g>
					<polygon fill="#B7C5FD" points="0,-361.2 361.2,-361.2 361.2,0 0,0 					"/>
				</g>
			</g>
		</g>
	</g>
</pattern>
<pattern  y="560" width="361.2" height="361.2" patternUnits="userSpaceOnUse" id="SVGID_30_" viewBox="0 -361.2 361.2 361.2" overflow="visible">
	<g>
		<polygon fill="none" points="0,0 361.2,0 361.2,-361.2 0,-361.2 		"/>
		<g>
			<polygon fill="none" points="0,-361.2 361.2,-361.2 361.2,0 0,0 			"/>
			<g>
				<polygon fill="none" points="0,-361.2 361.2,-361.2 361.2,0 0,0 				"/>
				<g>
					<polygon fill="#B7C5FD" points="0,-361.2 361.2,-361.2 361.2,0 0,0 					"/>
				</g>
			</g>
		</g>
	</g>
</pattern>
<pattern  y="560" width="361.2" height="361.2" patternUnits="userSpaceOnUse" id="SVGID_31_" viewBox="0 -361.2 361.2 361.2" overflow="visible">
	<g>
		<polygon fill="none" points="0,0 361.2,0 361.2,-361.2 0,-361.2 		"/>
		<g>
			<polygon fill="none" points="0,-361.2 361.2,-361.2 361.2,0 0,0 			"/>
			<g>
				<polygon fill="none" points="0,-361.2 361.2,-361.2 361.2,0 0,0 				"/>
				<g>
					<polygon fill="#B7C5FD" points="0,-361.2 361.2,-361.2 361.2,0 0,0 					"/>
				</g>
			</g>
		</g>
	</g>
</pattern>
<pattern  y="560" width="361.2" height="361.2" patternUnits="userSpaceOnUse" id="SVGID_32_" viewBox="0 -361.2 361.2 361.2" overflow="visible">
	<g>
		<polygon fill="none" points="0,0 361.2,0 361.2,-361.2 0,-361.2 		"/>
		<g>
			<polygon fill="none" points="0,-361.2 361.2,-361.2 361.2,0 0,0 			"/>
			<g>
				<polygon fill="none" points="0,-361.2 361.2,-361.2 361.2,0 0,0 				"/>
				<g>
					<polygon fill="#B7C5FD" points="0,-361.2 361.2,-361.2 361.2,0 0,0 					"/>
				</g>
			</g>
		</g>
	</g>
</pattern>
<pattern  y="560" width="361.2" height="361.2" patternUnits="userSpaceOnUse" id="SVGID_33_" viewBox="0 -361.2 361.2 361.2" overflow="visible">
	<g>
		<polygon fill="none" points="0,0 361.2,0 361.2,-361.2 0,-361.2 		"/>
		<g>
			<polygon fill="none" points="0,-361.2 361.2,-361.2 361.2,0 0,0 			"/>
			<g>
				<polygon fill="none" points="0,-361.2 361.2,-361.2 361.2,0 0,0 				"/>
				<g>
					<polygon fill="#B7C5FD" points="0,-361.2 361.2,-361.2 361.2,0 0,0 					"/>
				</g>
			</g>
		</g>
	</g>
</pattern>
<pattern  y="560" width="361.2" height="361.2" patternUnits="userSpaceOnUse" id="SVGID_34_" viewBox="0 -361.2 361.2 361.2" overflow="visible">
	<g>
		<polygon fill="none" points="0,0 361.2,0 361.2,-361.2 0,-361.2 		"/>
		<g>
			<polygon fill="none" points="0,-361.2 361.2,-361.2 361.2,0 0,0 			"/>
			<g>
				<polygon fill="none" points="0,-361.2 361.2,-361.2 361.2,0 0,0 				"/>
				<g>
					<polygon fill="#B7C5FD" points="0,-361.2 361.2,-361.2 361.2,0 0,0 					"/>
				</g>
			</g>
		</g>
	</g>
</pattern>
<pattern  y="560" width="361.2" height="361.2" patternUnits="userSpaceOnUse" id="SVGID_35_" viewBox="0 -361.2 361.2 361.2" overflow="visible">
	<g>
		<polygon fill="none" points="0,0 361.2,0 361.2,-361.2 0,-361.2 		"/>
		<g>
			<polygon fill="none" points="0,-361.2 361.2,-361.2 361.2,0 0,0 			"/>
			<g>
				<polygon fill="none" points="0,-361.2 361.2,-361.2 361.2,0 0,0 				"/>
				<g>
					<polygon fill="#B7C5FD" points="0,-361.2 361.2,-361.2 361.2,0 0,0 					"/>
				</g>
			</g>
		</g>
	</g>
</pattern>
<pattern  y="560" width="361.2" height="361.2" patternUnits="userSpaceOnUse" id="SVGID_36_" viewBox="0 -361.2 361.2 361.2" overflow="visible">
	<g>
		<polygon fill="none" points="0,0 361.2,0 361.2,-361.2 0,-361.2 		"/>
		<g>
			<polygon fill="none" points="0,-361.2 361.2,-361.2 361.2,0 0,0 			"/>
			<g>
				<polygon fill="none" points="0,-361.2 361.2,-361.2 361.2,0 0,0 				"/>
				<g>
					<polygon fill="#B7C5FD" points="0,-361.2 361.2,-361.2 361.2,0 0,0 					"/>
				</g>
			</g>
		</g>
	</g>
</pattern>
<pattern  y="560" width="361.2" height="361.2" patternUnits="userSpaceOnUse" id="SVGID_37_" viewBox="0 -361.2 361.2 361.2" overflow="visible">
	<g>
		<polygon fill="none" points="0,0 361.2,0 361.2,-361.2 0,-361.2 		"/>
		<g>
			<polygon fill="none" points="0,-361.2 361.2,-361.2 361.2,0 0,0 			"/>
			<g>
				<polygon fill="none" points="0,-361.2 361.2,-361.2 361.2,0 0,0 				"/>
				<g>
					<polygon fill="#B7C5FD" points="0,-361.2 361.2,-361.2 361.2,0 0,0 					"/>
				</g>
			</g>
		</g>
	</g>
</pattern>
<pattern  y="560" width="361.2" height="361.2" patternUnits="userSpaceOnUse" id="SVGID_38_" viewBox="0 -361.2 361.2 361.2" overflow="visible">
	<g>
		<polygon fill="none" points="0,0 361.2,0 361.2,-361.2 0,-361.2 		"/>
		<g>
			<polygon fill="none" points="0,-361.2 361.2,-361.2 361.2,0 0,0 			"/>
			<g>
				<polygon fill="none" points="0,-361.2 361.2,-361.2 361.2,0 0,0 				"/>
				<g>
					<polygon fill="#B7C5FD" points="0,-361.2 361.2,-361.2 361.2,0 0,0 					"/>
				</g>
			</g>
		</g>
	</g>
</pattern>
<pattern  y="560" width="361.2" height="361.2" patternUnits="userSpaceOnUse" id="SVGID_39_" viewBox="0 -361.2 361.2 361.2" overflow="visible">
	<g>
		<polygon fill="none" points="0,0 361.2,0 361.2,-361.2 0,-361.2 		"/>
		<g>
			<polygon fill="none" points="0,-361.2 361.2,-361.2 361.2,0 0,0 			"/>
			<g>
				<polygon fill="none" points="0,-361.2 361.2,-361.2 361.2,0 0,0 				"/>
				<g>
					<polygon fill="#B7C5FD" points="0,-361.2 361.2,-361.2 361.2,0 0,0 					"/>
				</g>
			</g>
		</g>
	</g>
</pattern>
<pattern  y="560" width="361.2" height="361.2" patternUnits="userSpaceOnUse" id="SVGID_40_" viewBox="0 -361.2 361.2 361.2" overflow="visible">
	<g>
		<polygon fill="none" points="0,0 361.2,0 361.2,-361.2 0,-361.2 		"/>
		<g>
			<polygon fill="none" points="0,-361.2 361.2,-361.2 361.2,0 0,0 			"/>
			<g>
				<polygon fill="none" points="0,-361.2 361.2,-361.2 361.2,0 0,0 				"/>
				<g>
					<polygon fill="#B7C5FD" points="0,-361.2 361.2,-361.2 361.2,0 0,0 					"/>
				</g>
			</g>
		</g>
	</g>
</pattern>
<pattern  y="560" width="361.2" height="361.2" patternUnits="userSpaceOnUse" id="SVGID_41_" viewBox="0 -361.2 361.2 361.2" overflow="visible">
	<g>
		<polygon fill="none" points="0,0 361.2,0 361.2,-361.2 0,-361.2 		"/>
		<g>
			<polygon fill="none" points="0,-361.2 361.2,-361.2 361.2,0 0,0 			"/>
			<g>
				<polygon fill="none" points="0,-361.2 361.2,-361.2 361.2,0 0,0 				"/>
				<g>
					<polygon fill="#B7C5FD" points="0,-361.2 361.2,-361.2 361.2,0 0,0 					"/>
				</g>
			</g>
		</g>
	</g>
</pattern>
<pattern  y="560" width="361.2" height="361.2" patternUnits="userSpaceOnUse" id="SVGID_42_" viewBox="0 -361.2 361.2 361.2" overflow="visible">
	<g>
		<polygon fill="none" points="0,0 361.2,0 361.2,-361.2 0,-361.2 		"/>
		<g>
			<polygon fill="none" points="0,-361.2 361.2,-361.2 361.2,0 0,0 			"/>
			<g>
				<polygon fill="none" points="0,-361.2 361.2,-361.2 361.2,0 0,0 				"/>
				<g>
					<polygon fill="#B7C5FD" points="0,-361.2 361.2,-361.2 361.2,0 0,0 					"/>
				</g>
			</g>
		</g>
	</g>
</pattern>
<pattern  y="560" width="361.2" height="361.2" patternUnits="userSpaceOnUse" id="SVGID_43_" viewBox="0 -361.2 361.2 361.2" overflow="visible">
	<g>
		<polygon fill="none" points="0,0 361.2,0 361.2,-361.2 0,-361.2 		"/>
		<g>
			<polygon fill="none" points="0,-361.2 361.2,-361.2 361.2,0 0,0 			"/>
			<g>
				<polygon fill="none" points="0,-361.2 361.2,-361.2 361.2,0 0,0 				"/>
				<g>
					<polygon fill="#B7C5FD" points="0,-361.2 361.2,-361.2 361.2,0 0,0 					"/>
				</g>
			</g>
		</g>
	</g>
</pattern>
<pattern  y="560" width="361.2" height="361.2" patternUnits="userSpaceOnUse" id="SVGID_44_" viewBox="0 -361.2 361.2 361.2" overflow="visible">
	<g>
		<polygon fill="none" points="0,0 361.2,0 361.2,-361.2 0,-361.2 		"/>
		<g>
			<polygon fill="none" points="0,-361.2 361.2,-361.2 361.2,0 0,0 			"/>
			<g>
				<polygon fill="none" points="0,-361.2 361.2,-361.2 361.2,0 0,0 				"/>
				<g>
					<polygon fill="#B7C5FD" points="0,-361.2 361.2,-361.2 361.2,0 0,0 					"/>
				</g>
			</g>
		</g>
	</g>
</pattern>
<pattern  y="560" width="361.2" height="361.2" patternUnits="userSpaceOnUse" id="SVGID_45_" viewBox="0 -361.2 361.2 361.2" overflow="visible">
	<g>
		<polygon fill="none" points="0,0 361.2,0 361.2,-361.2 0,-361.2 		"/>
		<g>
			<polygon fill="none" points="0,-361.2 361.2,-361.2 361.2,0 0,0 			"/>
			<g>
				<polygon fill="none" points="0,-361.2 361.2,-361.2 361.2,0 0,0 				"/>
				<g>
					<polygon fill="#B7C5FD" points="0,-361.2 361.2,-361.2 361.2,0 0,0 					"/>
				</g>
			</g>
		</g>
	</g>
</pattern>
<pattern  y="560" width="361.2" height="361.2" patternUnits="userSpaceOnUse" id="SVGID_46_" viewBox="0 -361.2 361.2 361.2" overflow="visible">
	<g>
		<polygon fill="none" points="0,0 361.2,0 361.2,-361.2 0,-361.2 		"/>
		<g>
			<polygon fill="none" points="0,-361.2 361.2,-361.2 361.2,0 0,0 			"/>
			<g>
				<polygon fill="none" points="0,-361.2 361.2,-361.2 361.2,0 0,0 				"/>
				<g>
					<polygon fill="#B7C5FD" points="0,-361.2 361.2,-361.2 361.2,0 0,0 					"/>
				</g>
			</g>
		</g>
	</g>
</pattern>
<pattern  y="560" width="361.2" height="361.2" patternUnits="userSpaceOnUse" id="SVGID_47_" viewBox="0 -361.2 361.2 361.2" overflow="visible">
	<g>
		<polygon fill="none" points="0,0 361.2,0 361.2,-361.2 0,-361.2 		"/>
		<g>
			<polygon fill="none" points="0,-361.2 361.2,-361.2 361.2,0 0,0 			"/>
			<g>
				<polygon fill="none" points="0,-361.2 361.2,-361.2 361.2,0 0,0 				"/>
				<g>
					<polygon fill="#B7C5FD" points="0,-361.2 361.2,-361.2 361.2,0 0,0 					"/>
				</g>
			</g>
		</g>
	</g>
</pattern>
<pattern  y="560" width="361.2" height="361.2" patternUnits="userSpaceOnUse" id="SVGID_48_" viewBox="0 -361.2 361.2 361.2" overflow="visible">
	<g>
		<polygon fill="none" points="0,0 361.2,0 361.2,-361.2 0,-361.2 		"/>
		<g>
			<polygon fill="none" points="0,-361.2 361.2,-361.2 361.2,0 0,0 			"/>
			<g>
				<polygon fill="none" points="0,-361.2 361.2,-361.2 361.2,0 0,0 				"/>
				<g>
					<polygon fill="#B7C5FD" points="0,-361.2 361.2,-361.2 361.2,0 0,0 					"/>
				</g>
			</g>
		</g>
	</g>
</pattern>
<pattern  y="560" width="361.2" height="361.2" patternUnits="userSpaceOnUse" id="SVGID_49_" viewBox="0 -361.2 361.2 361.2" overflow="visible">
	<g>
		<polygon fill="none" points="0,0 361.2,0 361.2,-361.2 0,-361.2 		"/>
		<g>
			<polygon fill="none" points="0,-361.2 361.2,-361.2 361.2,0 0,0 			"/>
			<g>
				<polygon fill="none" points="0,-361.2 361.2,-361.2 361.2,0 0,0 				"/>
				<g>
					<polygon fill="#B7C5FD" points="0,-361.2 361.2,-361.2 361.2,0 0,0 					"/>
				</g>
			</g>
		</g>
	</g>
</pattern>
<pattern  y="560" width="361.2" height="361.2" patternUnits="userSpaceOnUse" id="SVGID_50_" viewBox="0 -361.2 361.2 361.2" overflow="visible">
	<g>
		<polygon fill="none" points="0,0 361.2,0 361.2,-361.2 0,-361.2 		"/>
		<g>
			<polygon fill="none" points="0,-361.2 361.2,-361.2 361.2,0 0,0 			"/>
			<g>
				<polygon fill="none" points="0,-361.2 361.2,-361.2 361.2,0 0,0 				"/>
				<g>
					<polygon fill="#B7C5FD" points="0,-361.2 361.2,-361.2 361.2,0 0,0 					"/>
				</g>
			</g>
		</g>
	</g>
</pattern>
<pattern  y="560" width="361.2" height="361.2" patternUnits="userSpaceOnUse" id="SVGID_51_" viewBox="0 -361.2 361.2 361.2" overflow="visible">
	<g>
		<polygon fill="none" points="0,0 361.2,0 361.2,-361.2 0,-361.2 		"/>
		<g>
			<polygon fill="none" points="0,-361.2 361.2,-361.2 361.2,0 0,0 			"/>
			<g>
				<polygon fill="none" points="0,-361.2 361.2,-361.2 361.2,0 0,0 				"/>
				<g>
					<polygon fill="#B7C5FD" points="0,-361.2 361.2,-361.2 361.2,0 0,0 					"/>
				</g>
			</g>
		</g>
	</g>
</pattern>
<pattern  y="560" width="361.2" height="361.2" patternUnits="userSpaceOnUse" id="SVGID_52_" viewBox="0 -361.2 361.2 361.2" overflow="visible">
	<g>
		<polygon fill="none" points="0,0 361.2,0 361.2,-361.2 0,-361.2 		"/>
		<g>
			<polygon fill="none" points="0,-361.2 361.2,-361.2 361.2,0 0,0 			"/>
			<g>
				<polygon fill="none" points="0,-361.2 361.2,-361.2 361.2,0 0,0 				"/>
				<g>
					<polygon fill="#B7C5FD" points="0,-361.2 361.2,-361.2 361.2,0 0,0 					"/>
				</g>
			</g>
		</g>
	</g>
</pattern>
<pattern  y="560" width="361.2" height="361.2" patternUnits="userSpaceOnUse" id="SVGID_53_" viewBox="0 -361.2 361.2 361.2" overflow="visible">
	<g>
		<polygon fill="none" points="0,0 361.2,0 361.2,-361.2 0,-361.2 		"/>
		<g>
			<polygon fill="none" points="0,-361.2 361.2,-361.2 361.2,0 0,0 			"/>
			<g>
				<polygon fill="none" points="0,-361.2 361.2,-361.2 361.2,0 0,0 				"/>
				<g>
					<polygon fill="#B7C5FD" points="0,-361.2 361.2,-361.2 361.2,0 0,0 					"/>
				</g>
			</g>
		</g>
	</g>
</pattern>
<pattern  y="560" width="361.2" height="361.2" patternUnits="userSpaceOnUse" id="SVGID_54_" viewBox="0 -361.2 361.2 361.2" overflow="visible">
	<g>
		<polygon fill="none" points="0,0 361.2,0 361.2,-361.2 0,-361.2 		"/>
		<g>
			<polygon fill="none" points="0,-361.2 361.2,-361.2 361.2,0 0,0 			"/>
			<g>
				<polygon fill="none" points="0,-361.2 361.2,-361.2 361.2,0 0,0 				"/>
				<g>
					<polygon fill="#B7C5FD" points="0,-361.2 361.2,-361.2 361.2,0 0,0 					"/>
				</g>
			</g>
		</g>
	</g>
</pattern>
<pattern  y="560" width="361.2" height="361.2" patternUnits="userSpaceOnUse" id="SVGID_55_" viewBox="0 -361.2 361.2 361.2" overflow="visible">
	<g>
		<polygon fill="none" points="0,0 361.2,0 361.2,-361.2 0,-361.2 		"/>
		<g>
			<polygon fill="none" points="0,-361.2 361.2,-361.2 361.2,0 0,0 			"/>
			<g>
				<polygon fill="none" points="0,-361.2 361.2,-361.2 361.2,0 0,0 				"/>
				<g>
					<polygon fill="#B7C5FD" points="0,-361.2 361.2,-361.2 361.2,0 0,0 					"/>
				</g>
			</g>
		</g>
	</g>
</pattern>
<pattern  y="560" width="361.2" height="361.2" patternUnits="userSpaceOnUse" id="SVGID_56_" viewBox="0 -361.2 361.2 361.2" overflow="visible">
	<g>
		<polygon fill="none" points="0,0 361.2,0 361.2,-361.2 0,-361.2 		"/>
		<g>
			<polygon fill="none" points="0,-361.2 361.2,-361.2 361.2,0 0,0 			"/>
			<g>
				<polygon fill="none" points="0,-361.2 361.2,-361.2 361.2,0 0,0 				"/>
				<g>
					<polygon fill="#B7C5FD" points="0,-361.2 361.2,-361.2 361.2,0 0,0 					"/>
				</g>
			</g>
		</g>
	</g>
</pattern>
<g>
	<text transform="matrix(1 0 0 1 12.3531 150.2772)" fill="#3050B7" font-family="'MyriadPro-Regular'" font-size="12">Black/White listing data</text>
	<text transform="matrix(1 0 0 1 5.6865 277.5088)" fill="#3050B7" font-family="'MyriadPro-Regular'" font-size="12">Police DB for Vahan/RTO</text>
	<text transform="matrix(1 0 0 1 230.3531 146.0352)" fill="#3050B7" font-family="'MyriadPro-Regular'" font-size="12">Monitoring Control</text>
	<text transform="matrix(1 0 0 1 506.3121 148.669)" fill="#3050B7" font-family="'MyriadPro-Regular'" font-size="12">Monitoring Control</text>
	<text transform="matrix(1 0 0 1 605.3531 58.9053)" fill="#3050B7" font-family="'MyriadPro-Regular'" font-size="12">PA Console</text>
	<g>
		<text transform="matrix(1 0 0 1 415.425 206.2849)" fill="#3050B7" font-family="'MyriadPro-Regular'" font-size="12">TCCC</text>
	</g>
	<text transform="matrix(1 0 0 1 120.6865 484.5338)" fill="#3050B7" font-family="'MyriadPro-Regular'" font-size="12">E-Challan Handheld</text>
	<text transform="matrix(1 0 0 1 339.1768 484.5342)"><tspan x="0" y="0" fill="#3050B7" font-family="'MyriadPro-Regular'" font-size="12">Traffic Enforcement</tspan><tspan x="98" y="0" fill="#3050B7" font-family="'MyriadPro-Regular'" font-size="12" letter-spacing="7">	</tspan></text>
	<text transform="matrix(1 0 0 1 518.8807 484.5339)" fill="#3050B7" font-family="'MyriadPro-Regular'" font-size="12">PA &amp; ECB System</text>
	<g>
		<text transform="matrix(1 0 0 1 251.2491 421.1337)" fill="#3050B7" font-family="'MyriadPro-Regular'" font-size="12">RLVD Camera</text>
	</g>
	<text transform="matrix(1 0 0 1 323.3531 261.3572)" fill="#3050B7" font-family="'MyriadPro-Regular'" font-size="12">Smart Traffic Management System</text>
	<text transform="matrix(1 0 0 1 537.6926 246.2813)"><tspan x="0" y="0" fill="#3050B7" font-family="'MyriadPro-Regular'" font-size="12">PA &amp; ECB </tspan><tspan x="5.8" y="14.4" fill="#3050B7" font-family="'MyriadPro-Regular'" font-size="12">System</tspan></text>
	<text transform="matrix(1 0 0 1 223.1509 277.5088)"><tspan x="0" y="0" fill="#3050B7" font-family="'MyriadPro-Regular'" font-size="12">Live Video</tspan><tspan x="14.1" y="14.4" fill="#3050B7" font-family="'MyriadPro-Regular'" font-size="12">Data</tspan></text>
	<path fill="none" stroke="#000000" stroke-miterlimit="10" d="M104.7,208.7h45.4c0.7,0,1.3,0.6,1.3,1.3v5.9c0,0.7,0.6,1.3,1.3,1.3
		h29.5c0.7,0,1.3,0.6,1.3,1.3v0.4c0,0.7-0.6,1.3-1.3,1.3H150c-0.7,0-1.3-0.6-1.3-1.3v-6.4c0-0.7-0.6-1.3-1.3-1.3h-42.7
		c-0.7,0-1.3-0.6-1.3-1.3l0,0C103.4,209.3,103.9,208.7,104.7,208.7z"/>
	<polyline fill="none" stroke="#000000" stroke-width="4" stroke-miterlimit="10" points="206.6,176.1 206.6,155.6 412.5,155.6 	"/>
	<polyline fill="none" stroke="#000000" stroke-width="4" stroke-miterlimit="10" points="605.4,187.8 605.4,157.4 463.9,157.4 	"/>
	<g>
		<path fill="#424A60" d="M470.4,137.9L470.4,137.9c-0.9-5.4-13.5-9.7-28.9-9.7s-28,4.3-28.9,9.7l0,0h-0.1v0.6v13.9v0.6v0.6v13.3
			v0.6v0.6v14.4h0.1c0.9,5.4,13.5,9.7,28.9,9.7s28-4.3,28.9-9.7h0.1V168v-0.6v-0.6v-13.3v-0.6v-0.6v-13.8L470.4,137.9L470.4,137.9z"
			/>
		<g>
			<path fill="#424A60" d="M441.4,177.7c-16,0-29-4.6-29-10.3v15.1h0.1c0.9,5.4,13.5,9.7,28.9,9.7s28-4.3,28.9-9.7h0.1v-15.1
				C470.4,173.1,457.5,177.7,441.4,177.7z"/>
			<path fill="#424A60" d="M412.5,166.8v0.6C412.5,167.2,412.5,167,412.5,166.8L412.5,166.8z"/>
			<path fill="#424A60" d="M470.4,166.8c0,0.2,0.1,0.4,0.1,0.6L470.4,166.8L470.4,166.8z"/>
		</g>
		<g>
			<path fill="#556080" d="M441.4,163.2c-16,0-29-4.6-29-10.3V168h0.1c0.9,5.4,13.5,9.7,28.9,9.7s28-4.3,28.9-9.7h0.1v-15.1
				C470.4,158.6,457.5,163.2,441.4,163.2z"/>
			<path fill="#556080" d="M412.5,152.3v0.6C412.5,152.7,412.5,152.5,412.5,152.3L412.5,152.3z"/>
			<path fill="#556080" d="M470.4,152.3c0,0.2,0.1,0.4,0.1,0.6L470.4,152.3L470.4,152.3z"/>
		</g>
		<ellipse fill="#7FABDA" cx="441.4" cy="138.5" rx="29" ry="10.3"/>
		<g>
			<path fill="#7383BF" d="M441.4,148.7c-16,0-29-4.6-29-10.3v15.1h0.1c0.9,5.4,13.5,9.7,28.9,9.7s28-4.3,28.9-9.7h0.1v-15
				C470.4,144.1,457.5,148.7,441.4,148.7z"/>
			<path fill="#7383BF" d="M412.5,137.9v0.6C412.5,138.3,412.5,138.1,412.5,137.9L412.5,137.9z"/>
			<path fill="#7383BF" d="M470.4,137.9c0,0.2,0.1,0.4,0.1,0.6L470.4,137.9L470.4,137.9z"/>
		</g>
	</g>
	<polyline fill="none" points="611.4,186.5 611.4,157.4 638,157.4 638,114 	"/>
	<g>
		<path fill="#689CB0" d="M662.4,111.2l-4-10.4c-0.4-1-1.3-1.7-2.4-1.7h-36.8c-1.1,0-2,0.7-2.4,1.7l-4,10.4
			c-0.5,1.3,0.1,2.8,1.5,3.4c0.3,0.1,0.6,0.2,0.9,0.2H660c1.4,0,2.6-1.2,2.6-2.6C662.6,111.8,662.6,111.5,662.4,111.2L662.4,111.2z
			 M619.4,110.4l2.6-7.8h31.1l2.6,7.8H619.4z"/>
		<path fill="#F7EAD0" d="M653.1,102.6H622l-2.6,7.8h36.3L653.1,102.6z"/>
		<path fill="#EDDFC2" d="M619.4,110.4h36.3l-2.1-6.2l-33.9,5.2L619.4,110.4z"/>
		<path fill="#5C8EA1" d="M612.7,113c0.4,1,1.3,1.7,2.4,1.7H660c1.1,0,2.1-0.7,2.4-1.7H612.7z"/>
		<g>
			<path fill="#84CDD9" d="M636.7,88.4l-2.6-2.6v-6.6h-1.7v7.3l4.3,4.3v16.1h1.7V68h-1.7V88.4z"/>
			<path fill="#84CDD9" d="M648.8,70.6h-1.7v7.4l-5.2,5.2v23.7h1.7V84l5.2-5.2V70.6z"/>
			<path fill="#84CDD9" d="M659.2,81.4V68h-1.7v12.6l-0.9,0.9l-2.6-2.6v-4h-1.7v4.7l3.1,3.1l-4.8,4.8l-1.7-1.7v-3.1h-1.7v3.8
				l2.2,2.2l-2.2,2.2v15.9h1.7v-10l5.5-5.5h4.8v-1.7h-5.5l-4.8,4.8v-2.7L659.2,81.4z"/>
			<path fill="#84CDD9" d="M616,68h-1.7V84l4.8,4.8h-0.9l-2.8,2.8l1.2,1.2l2.3-2.3h1.9l5.5,5.5v10.9h1.7V95.3L616,83.2V68z"/>
			<path fill="#84CDD9" d="M629.8,80.5v-9h-1.7v8.3l-4.3,4.3l-1.7-1.7v-5.7h-1.7v6.4l11.2,11.2v12.6h1.7V93.6l-8.3-8.3L629.8,80.5z"
				/>
			<path fill="#84CDD9" d="M632.4,74.1h1.7v3.5h-1.7V74.1z"/>
			<path fill="#84CDD9" d="M652.3,71.5h1.7v1.7h-1.7V71.5z"/>
		</g>
		<g>
			<circle fill="#F2CF77" cx="637.6" cy="67.2" r="2.6"/>
			<circle fill="#F2CF77" cx="648" cy="69.8" r="2.6"/>
			<circle fill="#F2CF77" cx="658.3" cy="67.2" r="2.6"/>
			<circle fill="#F2CF77" cx="660.9" cy="90.5" r="2.6"/>
			<circle fill="#F2CF77" cx="615.1" cy="67.2" r="2.6"/>
			<circle fill="#F2CF77" cx="628.9" cy="70.6" r="2.6"/>
			<circle fill="#F2CF77" cx="621.2" cy="75.8" r="2.6"/>
			<path fill="#F2CF77" d="M612.5,93.1c0,1.4,1.2,2.6,2.6,2.6c1.4,0,2.6-1.2,2.6-2.6c0-0.7-0.3-1.3-0.8-1.8l-0.1,0.1l0.1-0.1
				c-1-1-2.7-1-3.7,0C612.8,91.8,612.5,92.4,612.5,93.1z"/>
		</g>
	</g>
	<polyline fill="none" stroke="#000000" stroke-width="4" stroke-miterlimit="10" points="615.6,181.8 615.6,157.4 638,157.4 
		638,111.1 	"/>
	<polyline fill="none" stroke="#000000" stroke-width="4" stroke-miterlimit="10" points="607.2,244 607.2,268.5 584.7,268.5 
		584.7,314.8 	"/>
	<g>
		<g>
			<g>
				<path fill="#2E4277" d="M585.8,192.2v41.4c0,0.6,0.4,1.2,1.2,1.7l17.7,10.3c1.6,0.9,4.2,0.9,5.8,0l21.5-12.4
					c0.8-0.5,1.2-1.1,1.2-1.7v-41.4C633.1,190.6,585.8,192.8,585.8,192.2z"/>
				<path fill="#1B2A4F" d="M587,193.8l17.7,10.3c0.8,0.5,1.9,0.7,2.9,0.7v41.4c-1.1,0-2.1-0.2-2.9-0.7L587,235.3
					c-0.8-0.5-1.2-1.1-1.2-1.7v-41.4C585.8,192.8,586.2,193.4,587,193.8z"/>
				<path fill="#384E85" d="M587,190.5c-1.6,0.9-1.6,2.4,0,3.3l17.7,10.3c1.6,0.9,4.2,0.9,5.8,0l21.5-12.4c1.6-0.9,1.6-2.4,0-3.3
					l-17.7-10.3c-1.6-0.9-4.2-0.9-5.8,0L587,190.5z"/>
				<path fill="#2E4277" d="M593.9,191.4c-0.7,0.4-0.7,1.1,0,1.5l12.4,7.2c0.7,0.4,1.8,0.4,2.5,0l16.1-9.3c0.7-0.4,0.7-1.1,0-1.5
					l-12.4-7.2c-0.7-0.4-1.8-0.4-2.5,0L593.9,191.4z"/>
				<g>
					<g>
						<g>
							<path fill="#4466FB" d="M612,206.3l18.4-10.6c0.4-0.2,0.9,0.1,0.9,0.5v33.9c0,0.4-0.2,0.8-0.6,1l-18.4,10.6
								c-0.4,0.2-0.9-0.1-0.9-0.5v-33.9C611.4,206.9,611.6,206.5,612,206.3z"/>
							<pattern  id="SVGID_1_" xlink:href="#SVGID_29_" patternTransform="matrix(-0.5458 0 0 0.5458 -116515.8516 -76575.8047)">
							</pattern>
							<path fill="url(#SVGID_1_)" d="M629.4,198.3c-0.3,0.2-0.6,0.7-0.6,1.1s0.3,0.6,0.6,0.4c0.3-0.2,0.6-0.7,0.6-1.1
								C630,198.3,629.8,198.1,629.4,198.3z"/>
							<pattern  id="SVGID_2_" xlink:href="#SVGID_30_" patternTransform="matrix(-0.5458 0 0 0.5458 -116515.8516 -76575.8047)">
							</pattern>
							<path fill="url(#SVGID_2_)" d="M627.4,199.5c-0.3,0.2-0.6,0.7-0.6,1.1c0,0.4,0.3,0.6,0.6,0.4c0.3-0.2,0.6-0.7,0.6-1.1
								C628,199.5,627.7,199.3,627.4,199.5z"/>
							<pattern  id="SVGID_3_" xlink:href="#SVGID_31_" patternTransform="matrix(-0.5458 0 0 0.5458 -116515.8516 -76575.8047)">
							</pattern>
							<path fill="url(#SVGID_3_)" d="M625.3,200.7c-0.3,0.2-0.6,0.7-0.6,1.1s0.3,0.6,0.6,0.4c0.3-0.2,0.6-0.7,0.6-1.1
								C626,200.6,625.7,200.5,625.3,200.7z"/>
							<pattern  id="SVGID_4_" xlink:href="#SVGID_32_" patternTransform="matrix(-0.5458 0 0 0.5458 -116515.8516 -76537.4297)">
							</pattern>
							<path fill="url(#SVGID_4_)" d="M629.4,203.4c-0.3,0.2-0.6,0.7-0.6,1.1s0.3,0.6,0.6,0.4c0.3-0.2,0.6-0.7,0.6-1.1
								C630,203.3,629.8,203.2,629.4,203.4z"/>
							<pattern  id="SVGID_5_" xlink:href="#SVGID_33_" patternTransform="matrix(-0.5458 0 0 0.5458 -116515.8516 -76537.4297)">
							</pattern>
							<path fill="url(#SVGID_5_)" d="M627.4,204.5c-0.3,0.2-0.6,0.7-0.6,1.1s0.3,0.6,0.6,0.4c0.3-0.2,0.6-0.7,0.6-1.1
								C628,204.5,627.7,204.3,627.4,204.5z"/>
							<pattern  id="SVGID_6_" xlink:href="#SVGID_34_" patternTransform="matrix(-0.5458 0 0 0.5458 -116515.8516 -76537.4297)">
							</pattern>
							<path fill="url(#SVGID_6_)" d="M625.3,205.7c-0.3,0.2-0.6,0.7-0.6,1.1s0.3,0.6,0.6,0.4c0.3-0.2,0.6-0.7,0.6-1.1
								C626,205.7,625.7,205.5,625.3,205.7z"/>
							<pattern  id="SVGID_7_" xlink:href="#SVGID_35_" patternTransform="matrix(-0.5458 0 0 0.5458 -116543.7813 -76342.6875)">
							</pattern>
							<polygon fill="url(#SVGID_7_)" points="613.2,207.4 618,204.6 618,206.4 613.2,209.2 							"/>
							<pattern  id="SVGID_8_" xlink:href="#SVGID_36_" patternTransform="matrix(-0.5458 0 0 0.5458 -116543.7813 -76304.3359)">
							</pattern>
							<polygon fill="url(#SVGID_8_)" points="613.2,212.4 618,209.7 618,211.5 613.2,214.2 							"/>
						</g>
					</g>
					<g>
						<g>
							<path fill="#384E85" d="M604.5,207.2c0.5,0.3,0.9,1,0.9,1.5v34.7c0,0.6-0.4,0.8-0.9,0.5s-0.9-1-0.9-1.5v-34.7
								C603.6,207.2,604,206.9,604.5,207.2z"/>
							<path fill="#798FFE" d="M604,242.2v-34.7c0-0.2,0-0.3,0.1-0.4c-0.3,0-0.5,0.2-0.5,0.6v34.7c0,0.6,0.4,1.2,0.9,1.5
								c0.3,0.2,0.6,0.1,0.8-0.1c-0.1,0-0.2,0-0.4-0.1C604.4,243.4,604,242.7,604,242.2z"/>
						</g>
						<g>
							<path fill="#384E85" d="M589.2,198.4c0.5,0.3,0.9,1,0.9,1.5v34.7c0,0.6-0.4,0.8-0.9,0.5s-0.9-1-0.9-1.5v-34.7
								C588.3,198.3,588.7,198.1,589.2,198.4z"/>
							<path fill="#798FFE" d="M588.7,233.3v-34.7c0-0.2,0-0.3,0.1-0.4c-0.3,0-0.5,0.2-0.5,0.6v34.7c0,0.6,0.4,1.2,0.9,1.5
								c0.3,0.2,0.6,0.1,0.8-0.1c-0.1,0-0.2,0-0.4-0.1C589.1,234.6,588.7,233.9,588.7,233.3z"/>
						</g>
						<g>
							<path fill="#384E85" d="M593,200.6c0.5,0.3,0.9,1,0.9,1.5v34.7c0,0.6-0.4,0.8-0.9,0.5s-0.9-1-0.9-1.5v-34.7
								C592.1,200.5,592.5,200.3,593,200.6z"/>
							<path fill="#798FFE" d="M592.5,235.5v-34.7c0-0.2,0-0.3,0.1-0.4c-0.3,0-0.5,0.2-0.5,0.6v34.7c0,0.6,0.4,1.2,0.9,1.5
								c0.3,0.2,0.6,0.1,0.8-0.1c-0.1,0-0.2,0-0.4-0.1C592.9,236.8,592.5,236.1,592.5,235.5z"/>
						</g>
						<g>
							<path fill="#384E85" d="M596.8,202.8c0.5,0.3,0.9,1,0.9,1.5V239c0,0.6-0.4,0.8-0.9,0.5s-0.9-1-0.9-1.5v-34.7
								C596,202.7,596.4,202.5,596.8,202.8z"/>
							<path fill="#798FFE" d="M596.4,237.7V203c0-0.2,0-0.3,0.1-0.4c-0.3,0-0.5,0.2-0.5,0.6v34.7c0,0.6,0.4,1.2,0.9,1.5
								c0.3,0.2,0.6,0.1,0.8-0.1c-0.1,0-0.2,0-0.4-0.1C596.8,239,596.4,238.3,596.4,237.7z"/>
						</g>
						<g>
							<path fill="#384E85" d="M600.7,205c0.5,0.3,0.9,1,0.9,1.5v34.7c0,0.6-0.4,0.8-0.9,0.5s-0.9-1-0.9-1.5v-34.7
								C599.8,205,600.2,204.7,600.7,205z"/>
							<path fill="#798FFE" d="M600.2,240v-34.7c0-0.2,0-0.3,0.1-0.4c-0.3,0-0.5,0.2-0.5,0.6v34.7c0,0.6,0.4,1.2,0.9,1.5
								c0.3,0.2,0.6,0.1,0.8-0.1c-0.1,0-0.2,0-0.4-0.1C600.6,241.2,600.2,240.5,600.2,240z"/>
						</g>
					</g>
				</g>
			</g>
			<g>
				<pattern  id="SVGID_9_" xlink:href="#SVGID_37_" patternTransform="matrix(-0.5458 0 0 0.5458 -116515.8516 -76499.0781)">
				</pattern>
				<path fill="url(#SVGID_9_)" d="M629.4,208.4c-0.3,0.2-0.6,0.7-0.6,1.1s0.3,0.6,0.6,0.4c0.3-0.2,0.6-0.7,0.6-1.1
					C630,208.3,629.8,208.2,629.4,208.4z"/>
				<pattern  id="SVGID_10_" xlink:href="#SVGID_38_" patternTransform="matrix(-0.5458 0 0 0.5458 -116515.8516 -76499.0781)">
				</pattern>
				<path fill="url(#SVGID_10_)" d="M627.4,209.6c-0.3,0.2-0.6,0.7-0.6,1.1c0,0.4,0.3,0.6,0.6,0.4c0.3-0.2,0.6-0.7,0.6-1.1
					C628,209.5,627.7,209.4,627.4,209.6z"/>
				<pattern  id="SVGID_11_" xlink:href="#SVGID_39_" patternTransform="matrix(-0.5458 0 0 0.5458 -116515.8516 -76499.0781)">
				</pattern>
				<path fill="url(#SVGID_11_)" d="M625.3,210.7c-0.3,0.2-0.6,0.7-0.6,1.1s0.3,0.6,0.6,0.4c0.3-0.2,0.6-0.7,0.6-1.1
					C626,210.7,625.7,210.5,625.3,210.7z"/>
				<pattern  id="SVGID_12_" xlink:href="#SVGID_40_" patternTransform="matrix(-0.5458 0 0 0.5458 -116543.7813 -76265.9766)">
				</pattern>
				<polygon fill="url(#SVGID_12_)" points="613.2,217.4 618,214.7 618,216.5 613.2,219.2 				"/>
			</g>
			<g>
				<pattern  id="SVGID_13_" xlink:href="#SVGID_41_" patternTransform="matrix(-0.5458 0 0 0.5458 -116515.8516 -76460.7031)">
				</pattern>
				<path fill="url(#SVGID_13_)" d="M629.4,213.4c-0.3,0.2-0.6,0.7-0.6,1.1c0,0.4,0.3,0.6,0.6,0.4c0.3-0.2,0.6-0.7,0.6-1.1
					C630,213.4,629.8,213.2,629.4,213.4z"/>
				<pattern  id="SVGID_14_" xlink:href="#SVGID_42_" patternTransform="matrix(-0.5458 0 0 0.5458 -116515.8516 -76460.7031)">
				</pattern>
				<path fill="url(#SVGID_14_)" d="M627.4,214.6c-0.3,0.2-0.6,0.7-0.6,1.1c0,0.4,0.3,0.6,0.6,0.4c0.3-0.2,0.6-0.7,0.6-1.1
					C628,214.5,627.7,214.4,627.4,214.6z"/>
				<pattern  id="SVGID_15_" xlink:href="#SVGID_43_" patternTransform="matrix(-0.5458 0 0 0.5458 -116515.8516 -76460.7031)">
				</pattern>
				<path fill="url(#SVGID_15_)" d="M625.3,215.7c-0.3,0.2-0.6,0.7-0.6,1.1s0.3,0.6,0.6,0.4c0.3-0.2,0.6-0.7,0.6-1.1
					C626,215.7,625.7,215.5,625.3,215.7z"/>
				<pattern  id="SVGID_16_" xlink:href="#SVGID_44_" patternTransform="matrix(-0.5458 0 0 0.5458 -116543.7813 -76227.6094)">
				</pattern>
				<polygon fill="url(#SVGID_16_)" points="613.2,222.4 618,219.7 618,221.5 613.2,224.2 				"/>
			</g>
			<g>
				<pattern  id="SVGID_17_" xlink:href="#SVGID_45_" patternTransform="matrix(-0.5458 0 0 0.5458 -116515.8516 -76422.3516)">
				</pattern>
				<path fill="url(#SVGID_17_)" d="M629.4,218.4c-0.3,0.2-0.6,0.7-0.6,1.1c0,0.4,0.3,0.6,0.6,0.4c0.3-0.2,0.6-0.7,0.6-1.1
					C630,218.4,629.8,218.2,629.4,218.4z"/>
				<pattern  id="SVGID_18_" xlink:href="#SVGID_46_" patternTransform="matrix(-0.5458 0 0 0.5458 -116515.8516 -76422.3516)">
				</pattern>
				<path fill="url(#SVGID_18_)" d="M627.4,219.6c-0.3,0.2-0.6,0.7-0.6,1.1s0.3,0.6,0.6,0.4c0.3-0.2,0.6-0.7,0.6-1.1
					C628,219.6,627.7,219.4,627.4,219.6z"/>
				<pattern  id="SVGID_19_" xlink:href="#SVGID_47_" patternTransform="matrix(-0.5458 0 0 0.5458 -116515.8516 -76422.3516)">
				</pattern>
				<path fill="url(#SVGID_19_)" d="M625.3,220.8c-0.3,0.2-0.6,0.7-0.6,1.1s0.3,0.6,0.6,0.4c0.3-0.2,0.6-0.7,0.6-1.1
					C626,220.7,625.7,220.6,625.3,220.8z"/>
				<pattern  id="SVGID_20_" xlink:href="#SVGID_48_" patternTransform="matrix(-0.5458 0 0 0.5458 -116543.7813 -76189.25)">
				</pattern>
				<polygon fill="url(#SVGID_20_)" points="613.2,227.5 618,224.7 618,226.5 613.2,229.2 				"/>
			</g>
			<g>
				<pattern  id="SVGID_21_" xlink:href="#SVGID_49_" patternTransform="matrix(-0.5458 0 0 0.5458 -116515.8516 -76383.9922)">
				</pattern>
				<path fill="url(#SVGID_21_)" d="M629.4,223.4c-0.3,0.2-0.6,0.7-0.6,1.1c0,0.4,0.3,0.6,0.6,0.4c0.3-0.2,0.6-0.7,0.6-1.1
					C630,223.4,629.8,223.2,629.4,223.4z"/>
				<pattern  id="SVGID_22_" xlink:href="#SVGID_50_" patternTransform="matrix(-0.5458 0 0 0.5458 -116515.8516 -76383.9922)">
				</pattern>
				<path fill="url(#SVGID_22_)" d="M627.4,224.6c-0.3,0.2-0.6,0.7-0.6,1.1c0,0.4,0.3,0.6,0.6,0.4c0.3-0.2,0.6-0.7,0.6-1.1
					C628,224.6,627.7,224.4,627.4,224.6z"/>
				<pattern  id="SVGID_23_" xlink:href="#SVGID_51_" patternTransform="matrix(-0.5458 0 0 0.5458 -116515.8516 -76383.9922)">
				</pattern>
				<path fill="url(#SVGID_23_)" d="M625.3,225.8c-0.3,0.2-0.6,0.7-0.6,1.1s0.3,0.6,0.6,0.4c0.3-0.2,0.6-0.7,0.6-1.1
					C626,225.7,625.7,225.6,625.3,225.8z"/>
				<pattern  id="SVGID_24_" xlink:href="#SVGID_52_" patternTransform="matrix(-0.5458 0 0 0.5458 -116543.7813 -76150.8828)">
				</pattern>
				<polygon fill="url(#SVGID_24_)" points="613.2,232.5 618,229.8 618,231.5 613.2,234.3 				"/>
			</g>
			<g>
				<pattern  id="SVGID_25_" xlink:href="#SVGID_53_" patternTransform="matrix(-0.5458 0 0 0.5458 -116515.8516 -76345.625)">
				</pattern>
				<path fill="url(#SVGID_25_)" d="M629.4,228.5c-0.3,0.2-0.6,0.7-0.6,1.1s0.3,0.6,0.6,0.4c0.3-0.2,0.6-0.7,0.6-1.1
					C630,228.4,629.8,228.3,629.4,228.5z"/>
				<pattern  id="SVGID_26_" xlink:href="#SVGID_54_" patternTransform="matrix(-0.5458 0 0 0.5458 -116515.8516 -76345.625)">
				</pattern>
				<path fill="url(#SVGID_26_)" d="M627.4,229.6c-0.3,0.2-0.6,0.7-0.6,1.1c0,0.4,0.3,0.6,0.6,0.4c0.3-0.2,0.6-0.7,0.6-1.1
					C628,229.6,627.7,229.4,627.4,229.6z"/>
				<pattern  id="SVGID_27_" xlink:href="#SVGID_55_" patternTransform="matrix(-0.5458 0 0 0.5458 -116515.8516 -76345.625)">
				</pattern>
				<path fill="url(#SVGID_27_)" d="M625.3,230.8c-0.3,0.2-0.6,0.7-0.6,1.1s0.3,0.6,0.6,0.4c0.3-0.2,0.6-0.7,0.6-1.1
					C626,230.8,625.7,230.6,625.3,230.8z"/>
				<pattern  id="SVGID_28_" xlink:href="#SVGID_56_" patternTransform="matrix(-0.5458 0 0 0.5458 -116543.7813 -76112.5234)">
				</pattern>
				<polygon fill="url(#SVGID_28_)" points="613.2,237.5 618,234.8 618,236.6 613.2,239.3 				"/>
			</g>
		</g>
	</g>
	<path fill="none" stroke="#000000" stroke-miterlimit="10" d="M202.8,246v31.4c0,1.1,0.9,2,2,2h7.4c1.1,0,2,0.9,2,2V309
		c0,1.1,0.9,2,2,2h1.2c1.1,0,2-0.9,2-2v-32.2c0-1.1-0.9-2-2-2h-8.7c-1.1,0-2-0.9-2-2V246c0-1.1-0.9-2-2-2l0,0
		C203.7,244,202.8,244.9,202.8,246z"/>
	<g>
		<text transform="matrix(1 0 0 1 197.8095 411.958)"><tspan x="0" y="0" fill="#3050B7" font-family="'MyriadPro-Regular'" font-size="12">NHDS</tspan><tspan x="1.6" y="14.4" fill="#3050B7" font-family="'MyriadPro-Regular'" font-size="12">TRDS</tspan></text>
	</g>
	<g>
		<path fill="#7F8C8D" d="M212.6,349.7c-0.4,0-0.8-0.3-0.8-0.8v-4.5c0-0.4,0.3-0.8,0.8-0.8c0.4,0,0.8,0.3,0.8,0.8v4.5
			C213.4,349.3,213,349.7,212.6,349.7z"/>
		<path fill="#95A5A5" d="M219.4,345.2h-13.5c-0.4,0-0.8-0.3-0.8-0.8c0-0.4,0.3-0.8,0.8-0.8h13.5c0.4,0,0.8,0.3,0.8,0.8
			C220.1,344.8,219.8,345.2,219.4,345.2z"/>
		<path fill="#67B9CC" d="M222.5,366.2h-19.8c-0.4,0-0.7-0.3-0.7-0.6l-2-9.8c0-0.2,0-0.5,0.2-0.6c0.1-0.2,0.4-0.3,0.6-0.3h23.7
			c0.2,0,0.4,0.1,0.6,0.3c0.1,0.2,0.2,0.4,0.2,0.6l-2,9.8C223.2,365.9,222.9,366.2,222.5,366.2z"/>
		<path fill="#7F8C8D" d="M218.4,349.9l-1.3,5.1h-9l-1.3-5.1c-0.1-0.2,0-0.5,0.1-0.6c0.1-0.2,0.4-0.3,0.6-0.3h10.1
			c0.2,0,0.4,0.1,0.6,0.3C218.4,349.4,218.5,349.6,218.4,349.9z"/>
		<path fill="#95A5A5" d="M218.4,349.9l-0.9,3.6h-9.8l-0.9-3.6c-0.1-0.2,0-0.5,0.1-0.6c0.1-0.2,0.4-0.3,0.6-0.3h10.1
			c0.2,0,0.4,0.1,0.6,0.3C218.4,349.4,218.5,349.6,218.4,349.9z"/>
		<path fill="#67B9CC" d="M206.6,366.2h-3.9c-0.4,0-0.7-0.3-0.7-0.6l-0.6-3.2h4.5L206.6,366.2z"/>
		<path fill="#2FA8CC" d="M211.1,366.2h-4.5l-0.8-3.8h4.5L211.1,366.2z"/>
		<path fill="#67B9CC" d="M216.4,354.9l-0.8,3.8h-6l-0.8-3.8H216.4z"/>
		<path fill="#2FA8CC" d="M215.6,358.7l-0.8,3.8h-4.5l-0.8-3.8H215.6z"/>
		<path fill="#67B9CC" d="M214.9,362.4l-0.8,3.8h-3l-0.8-3.8H214.9z"/>
		<path fill="#2FA8CC" d="M219.4,362.4l-0.8,3.8h-4.5l0.8-3.8H219.4z"/>
		<path fill="#2FA8CC" d="M220.9,354.9l-0.8,3.8h-4.5l0.8-3.8H220.9z"/>
		<path fill="#67B9CC" d="M225.2,355.8l-0.6,2.9h-4.5l0.8-3.8h3.6c0.2,0,0.4,0.1,0.6,0.3C225.2,355.4,225.2,355.6,225.2,355.8z"/>
		<path fill="#2FA8CC" d="M224.6,358.7l-0.8,3.8h-4.5l0.8-3.8H224.6z"/>
		<path fill="#67B9CC" d="M223.9,362.4l-0.6,3.2c-0.1,0.3-0.4,0.6-0.7,0.6h-3.9l0.8-3.8H223.9z"/>
		<path fill="#67B9CC" d="M205.1,358.7h-4.5l-0.6-2.9c0-0.2,0-0.5,0.2-0.6c0.1-0.2,0.4-0.3,0.6-0.3h3.6L205.1,358.7z"/>
		<path fill="#2FA8CC" d="M209.6,358.7h-4.5l-0.8-3.8h4.5L209.6,358.7z"/>
		<path fill="#7F8C8D" d="M203.6,366.2h18v3h-18V366.2z"/>
		<path fill="#95A5A5" d="M203.6,367.7h18v1.5h-18V367.7z"/>
		<path fill="#7F8C8D" d="M221.1,373.7h-16.9c-0.3,0-0.6-0.2-0.7-0.5l-1-3c-0.1-0.2,0-0.5,0.1-0.7c0.1-0.2,0.4-0.3,0.6-0.3h18.9
			c0.2,0,0.5,0.1,0.6,0.3c0.1,0.2,0.2,0.4,0.1,0.7l-1,3C221.7,373.5,221.4,373.7,221.1,373.7z"/>
		<path fill="#67B9CC" d="M210.4,362.4h-4.5l-0.8-3.8h4.5L210.4,362.4z"/>
		<path fill="#67B9CC" d="M220.1,358.7l-0.8,3.8h-4.5l0.8-3.8H220.1z"/>
		<path fill="#2FA8CC" d="M205.9,362.4h-4.5l-0.8-3.8h4.5L205.9,362.4z"/>
		<path fill="#BDC3C7" d="M205.1,373.7h15v13.5c0,0.4-0.3,0.8-0.8,0.8h-13.5c-0.4,0-0.8-0.3-0.8-0.8V373.7z"/>
		<path fill="#95A5A5" d="M211.1,373.7h3v7.5c0,0.8-0.7,1.5-1.5,1.5c-0.8,0-1.5-0.7-1.5-1.5V373.7z"/>
	</g>
	<g>
		<path fill="#2C5771" d="M150.9,411.9l-2-8.1c-0.8-3.5-4-5.9-7.5-5.9h-0.6v-2.8c-1.6,0.6-3.3,0.6-4.9,0v2.8h-0.6
			c-3.6,0-6.7,2.4-7.5,5.9c-0.2,0.9-1.8,7.2-2,8.1c-0.4,1.5,0.3,3,1.6,3.8c7.3,4.2,14.6,4.2,21.9,0
			C150.6,414.9,151.3,413.4,150.9,411.9z"/>
		<path fill="#24475C" d="M150.9,411.9l-2-8.1c-0.5-2-1.7-3.7-3.4-4.7c1.1,1.8,0.9,2.7,2.9,10.4c0.4,1.5-0.3,3-1.6,3.8
			c-7,4-14,4.2-21,0.5c0.3,0.8,0.8,1.5,1.6,2c7.3,4.2,14.6,4.2,21.9,0C150.6,414.9,151.3,413.4,150.9,411.9z"/>
		<path fill="#FCD78B" d="M140.8,397.9v-2.8c-1.6,0.6-3.3,0.6-4.9,0v2.8l2,1.4c0.3,0.2,0.6,0.2,0.9,0L140.8,397.9z"/>
		<path fill="#24475C" d="M133.2,398.2l2.8,4c0.1,0.2,0.4,0.2,0.5,0l1.6-2.3c0.1-0.2,0.1-0.4-0.1-0.5l-2.2-1.5
			C135.5,397.9,134.6,397.8,133.2,398.2z"/>
		<path fill="#24475C" d="M143.4,398.2l-2.8,4c-0.1,0.2-0.4,0.2-0.5,0l-1.6-2.3c-0.1-0.2-0.1-0.4,0.1-0.5l2.2-1.5
			C141.2,397.9,142.1,397.8,143.4,398.2z"/>
		<path fill="#E0A812" d="M138.2,399.9l-1.7,2.4c1.2,0.6,2.5,0.6,3.7,0l-1.7-2.4C138.4,399.8,138.2,399.8,138.2,399.9z"/>
		<path fill="#FFBF14" d="M139.3,402.6c-0.6,0.2-1.2,0.2-1.8,0l-1.2,9.8c0,0.1,0,0.2,0.1,0.3l1.8,1.3c0.1,0.1,0.3,0.1,0.4,0l1.8-1.3
			c0.1-0.1,0.1-0.2,0.1-0.3L139.3,402.6z"/>
		<path fill="#E0A812" d="M139.3,402.6c-0.6,0.1-1.1,0.2-1.7,0l0.9,7.7c0.1,0.5-0.2,1-0.6,1.3l-1.6,1.2l1.7,1.3
			c0.1,0.1,0.3,0.1,0.4,0l1.8-1.3c0.1-0.1,0.1-0.2,0.1-0.3L139.3,402.6z"/>
		<path fill="#CCDFED" d="M146.8,407.2h-4.4c-0.3,0-0.6-0.3-0.6-0.6v-0.9c0-0.3,0.3-0.6,0.6-0.6h4.4c0.3,0,0.6,0.3,0.6,0.6v0.9
			C147.4,406.9,147.1,407.2,146.8,407.2z"/>
		<path fill="#2C5771" d="M148.4,377c-0.4-0.8-0.9-1.5-1.4-2.1c-0.2-0.2-0.6-0.3-0.9-0.2c-1.1,0.4-2.1,0.4-3.2,0
			c-1.2-0.6-2.5-1-3.8-1.2c-1.7-0.3-3.9,0.5-5.4,1.2c-1,0.5-2.1,0.5-3.2,0c-0.3-0.1-0.6,0-0.9,0.2c-0.6,0.6-1.1,1.3-1.4,2.1
			c-0.2,0.4-0.1,0.8,0.2,1c0.8,0.6,1.6,1.5,2.3,2.5h15.1c0.7-1.1,1.4-2,2.3-2.5C148.5,377.8,148.6,377.3,148.4,377z"/>
		<path fill="#24475C" d="M148.4,377c-0.3-0.6-0.6-1.1-1-1.6c0.1,0.3-0.1,0.6-0.3,0.8c-0.4,0.3-0.8,0.7-1.2,1.1
			c-0.8,0.9-2,1.5-3.3,1.5H132c-1.3,0-2.6-0.6-3.5-1.5c-0.1-0.1-0.2-0.2-0.2-0.3c-0.2,0.4-0.1,0.8,0.2,1c0.8,0.6,1.6,1.5,2.3,2.5
			h15.1c0.7-1.1,1.4-2,2.3-2.5C148.5,377.7,148.6,377.3,148.4,377z"/>
		<path fill="#E0A812" d="M130.8,380.5h15.1v2.1h-15.1V380.5z"/>
		<path fill="#FCD78B" d="M144.3,384.6c-4,1-8,1-11.9,0l-0.8-0.7v5c0,3.8,3,6.8,6.8,6.8c3.4,0,6.3-2.6,6.7-5.9l0.1-2.6v-3.3
			L144.3,384.6z"/>
		<path fill="#E6B883" d="M144,384.6c-3.9,0.9-7.7,0.9-11.6-0.1l-0.8-0.7v2c3.5,1,6.9,1.2,10.4,0.7c0.9-0.1,1.7,0.6,1.6,1.4l0,0.2
			c-0.7,5.1-6.6,7.6-10.7,4.6c3.6,5,11.4,2.9,12.2-3.1l0.1-2.6v-3.3C144,383.9,144.5,384.5,144,384.6z"/>
		<path fill="#FFBF14" d="M136.8,378.6c0.3,0,0.4-0.2,0.9-0.4v0.6c0,0.4,0.3,0.7,0.7,0.7s0.7-0.3,0.7-0.7v-0.6l0.5,0.3
			c0.3,0.2,0.7,0.1,0.9-0.3c0.2-0.3,0.1-0.7-0.3-0.9l-0.5-0.3l0.5-0.3c0.3-0.2,0.4-0.6,0.3-0.9c-0.2-0.3-0.6-0.4-0.9-0.3l-0.5,0.3
			v-0.6c0-0.4-0.3-0.7-0.7-0.7s-0.7,0.3-0.7,0.7v0.6l-0.5-0.3c-0.3-0.2-0.7-0.1-0.9,0.3c-0.2,0.3-0.1,0.7,0.3,0.9l0.5,0.3l-0.5,0.3
			C135.9,377.6,136.1,378.6,136.8,378.6z"/>
		<path fill="#24475C" d="M130.8,382.6h15.1l0.6,0.4c0.3,0.3,0.3,0.8-0.2,1c-5.3,1.8-10.6,1.8-15.9,0c-0.4-0.1-0.5-0.7-0.2-1
			L130.8,382.6z"/>
		<path fill="#E6B883" d="M135.9,395v1.4c1.6,0.6,3.3,0.6,4.9,0V395C139.2,395.6,137.5,395.6,135.9,395z"/>
	</g>
	<g>
		<path fill="#424A60" d="M189.9,436.5H173c-1.3,0-2.3-1-2.3-2.3v-34.3c0-1.3,1-2.3,2.3-2.3h16.9c1.3,0,2.3,1,2.3,2.3v34.3
			C192.2,435.5,191.1,436.5,189.9,436.5z"/>
		<rect x="170.7" y="401.7" fill="#E7ECED" width="21.4" height="26.8"/>
		<circle fill="#262B35" cx="181.4" cy="432.5" r="2"/>
		<path fill="#262B35" d="M181.4,400.3h-2.7c-0.4,0-0.7-0.3-0.7-0.7c0-0.4,0.3-0.7,0.7-0.7h2.7c0.4,0,0.7,0.3,0.7,0.7
			C182.1,400,181.8,400.3,181.4,400.3z"/>
		<path fill="#262B35" d="M184.1,400.3h-0.7c-0.4,0-0.7-0.3-0.7-0.7c0-0.4,0.3-0.7,0.7-0.7h0.7c0.4,0,0.7,0.3,0.7,0.7
			C184.8,400,184.5,400.3,184.1,400.3z"/>
		<path fill="#48A0DC" d="M186.8,405h-10.7c-1.5,0-2.7,1.2-2.7,2.7v1.3v1.3v2.7l2.7-2.7h10.7c1.5,0,2.7-1.2,2.7-2.7l0,0
			C189.5,406.2,188.3,405,186.8,405z"/>
		<path fill="#61B872" d="M176.1,416.4h10.7c1.5,0,2.7,1.2,2.7,2.7v1.3v1.3v2.7l-2.7-2.7h-10.7c-1.5,0-2.7-1.2-2.7-2.7l0,0
			C173.4,417.6,174.6,416.4,176.1,416.4z"/>
	</g>
	<g>
		<text transform="matrix(1 0 0 1 168.0814 363.8093)"><tspan x="0" y="0" fill="#3050B7" font-family="'MyriadPro-Regular'" font-size="12">GSM</tspan><tspan x="-4" y="14.4" fill="#3050B7" font-family="'MyriadPro-Regular'" font-size="12">Tower</tspan></text>
	</g>
	<g>
		<path fill="#584496" d="M506.3,68.2c0,36-29.2,65.2-65.2,65.2s-65.2-29.2-65.2-65.2c0-36,29.2-65.2,65.2-65.2
			S506.3,32.2,506.3,68.2z"/>
		<path fill="#85D0F9" d="M464.2,22.1H418c-1.2,0-2.2,1-2.2,2.2v24.8c0,1.2,1,2.2,2.2,2.2h46.2c1.2,0,2.2-1,2.2-2.2V24.3
			C466.4,23.1,465.4,22.1,464.2,22.1z"/>
		<path fill="#48A4EF" d="M436.2,22.1H418c-1.2,0-2.2,1-2.2,2.2v24.8c0,1.2,1,2.2,2.2,2.2h18.2V22.1z"/>
		<path fill="#5091DE" d="M426,49.1V24.3c0-1.2,1-2.2,2.2-2.2H418c-1.2,0-2.2,1-2.2,2.2v24.8c0,1.2,1,2.2,2.2,2.2h10.2
			C427,51.4,426,50.4,426,49.1z"/>
		<path fill="#48A4EF" d="M450.4,97.2h-18.6c-2.6,0-4.7,2.1-4.7,4.7v30c4.5,1,9.2,1.5,14,1.5c4.8,0,9.5-0.5,14-1.5v-30
			C455.1,99.4,453,97.2,450.4,97.2z"/>
		<path fill="#5091DE" d="M433,101.9c0-1.8,0.7-3.5,1.9-4.7h-3.1c-2.6,0-4.7,2.1-4.7,4.7v30c1.9,0.4,3.9,0.8,5.9,1V101.9z"/>
		<path fill="#ECEEED" d="M450.4,95.1h-18.6c-3.7,0-6.8,3-6.8,6.8v29.5c1.4,0.3,2.8,0.7,4.2,0.9v-30.4c0-1.4,1.2-2.6,2.6-2.6h1.1
			c0.5,0,1,0.3,1.2,0.8c0.5,1.6,2.1,2.7,3.8,2.7h6.4c1.8,0,3.4-1.2,3.9-2.9c0.1-0.4,0.5-0.7,0.9-0.7h1.3c1.4,0,2.6,1.2,2.6,2.6v30.4
			c1.4-0.3,2.8-0.6,4.2-0.9v-29.5C457.2,98.2,454.1,95.1,450.4,95.1z"/>
		<path fill="#D1D0D6" d="M439.8,95.1h-8c-3.7,0-6.8,3-6.8,6.8v29.5c1.4,0.3,2.8,0.7,4.2,0.9v-30.4c0-1.4,1.2-2.6,2.6-2.6h1.1
			c0.2,0,0.4,0.1,0.6,0.1C434.4,96.9,436.9,95.1,439.8,95.1z"/>
		<path fill="#ECEEED" d="M464.2,58.6H418c-1.2,0-2.2,1-2.2,2.2v24.8c0,1.2,1,2.2,2.2,2.2h46.2c1.2,0,2.2-1,2.2-2.2V60.8
			C466.4,59.6,465.4,58.6,464.2,58.6z"/>
		<path fill="#D1D0D6" d="M426,85.6V60.8c0-1.2,1-2.2,2.2-2.2H418c-1.2,0-2.2,1-2.2,2.2v24.8c0,1.2,1,2.2,2.2,2.2h10.2
			C427,87.9,426,86.9,426,85.6z"/>
		<path fill="#48A4EF" d="M504.4,62.5l-28.2-3.6c-1.3-0.2-2.5,0.9-2.5,2.2v25.1c0,1,0.6,1.8,1.5,2.1l24.7,8
			c4.1-8.5,6.4-18.1,6.4-28.1c0-1.4-0.1-2.9-0.1-4.3C505.9,63.2,505.2,62.6,504.4,62.5z"/>
		<path fill="#FAB94F" d="M406.9,88.4c0.9-0.3,1.5-1.2,1.5-2.1V61.1c0-1.3-1.2-2.4-2.5-2.2l-28.2,3.6c-0.8,0.1-1.5,0.7-1.8,1.4
			c-0.1,1.4-0.1,2.8-0.1,4.3c0,10.1,2.3,19.6,6.4,28.1L406.9,88.4z"/>
		<path fill="#6CB964" d="M503.9,19.5l-28.2,2.4c-1.2,0.1-2,1.1-2,2.2v25.2c0,1.1,0.9,2.1,2,2.2l28.2,3.1c1.3,0.1,2.5-0.9,2.5-2.2
			V21.8C506.3,20.4,505.2,19.4,503.9,19.5z"/>
		<path fill="#5091DE" d="M486.8,90.5V63c0-1.2,0.9-2.2,2.1-2.4l-12.6-1.6c-1.3-0.2-2.5,0.9-2.5,2.2v25.1c0,1,0.6,1.8,1.5,2.1
			l12.4,4C487.1,91.9,486.8,91.3,486.8,90.5z"/>
		<path fill="#5BA852" d="M486.8,50.8V23.2c0-1.1,0.8-2.1,1.9-2.4l-12.9,1.1c-1.2,0.1-2,1.1-2,2.2v25.2c0,1.1,0.9,2.1,2,2.2
			l12.5,1.4C487.3,52.6,486.8,51.7,486.8,50.8z"/>
		<path fill="#F37254" d="M406.4,21.9l-28.2-2.4c-1.3-0.1-2.4,0.9-2.4,2.2v30.7c0,1.3,1.2,2.4,2.5,2.2l28.2-3.1c1.1-0.1,2-1.1,2-2.2
			V24.2C408.5,23,407.6,22,406.4,21.9z"/>
		<path fill="#F79552" d="M389,91.5V62.3c0-0.5,0.2-0.9,0.4-1.3l-11.6,1.5c-0.8,0.1-1.5,0.7-1.8,1.4c-0.1,1.4-0.1,2.8-0.1,4.3
			c0,10.1,2.3,19.6,6.4,28.1l8.6-2.8C389.8,93.4,389,92.6,389,91.5z"/>
		<path fill="#EF4E57" d="M389,52.5V21.8c0-0.5,0.2-0.9,0.4-1.3l-11.1-0.9c-1.3-0.1-2.4,0.9-2.4,2.2v30.7c0,1.3,1.2,2.4,2.5,2.2
			l10.9-1.2C389.1,53.2,389,52.8,389,52.5z"/>
		<path fill="#5F6ABB" d="M425.8,36.2c-2.6,0.1-4.6,2.3-4.6,4.9v1.3c0,0.8,0.7,1.5,1.5,1.5h6.8c0.8,0,1.4-0.6,1.4-1.4V41
			C430.8,38.3,428.6,36.1,425.8,36.2z"/>
		<path fill="#FCD2A4" d="M429.3,32.9c0,1.8-1.5,3.3-3.3,3.3c-1.8,0-3.3-1.5-3.3-3.3c0-1.8,1.5-3.3,3.3-3.3
			C427.8,29.5,429.3,31,429.3,32.9z"/>
		<path fill="#584496" d="M425.2,42.4v-1.3c0-2.2,0.9-4.2,2.1-4.8c-0.5-0.1-0.9-0.2-1.4-0.2c-2.6,0.1-4.6,2.3-4.6,4.9v1.3
			c0,0.8,0.7,1.5,1.5,1.5h3.4C425.6,43.9,425.2,43.3,425.2,42.4z"/>
		<path fill="#F2BA88" d="M426,32.9c0-1.4,0.5-2.6,1.2-3.1c-0.4-0.2-0.8-0.2-1.3-0.2c-1.8,0-3.3,1.5-3.3,3.3c0,1.8,1.5,3.3,3.3,3.3
			c0.4,0,0.9-0.1,1.3-0.2C426.5,35.5,426,34.3,426,32.9z"/>
		<path fill="#D0F2FC" d="M458.2,31.5h-14.6c-1.2,0-2.1-0.9-2.1-2.1c0-1.2,0.9-2.1,2.1-2.1h14.6c1.2,0,2.1,0.9,2.1,2.1
			C460.3,30.5,459.3,31.5,458.2,31.5z"/>
		<path fill="#D0F2FC" d="M458.2,38.6h-14.6c-1.2,0-2.1-0.9-2.1-2.1c0-1.2,0.9-2.1,2.1-2.1h14.6c1.2,0,2.1,0.9,2.1,2.1
			C460.3,37.7,459.3,38.6,458.2,38.6z"/>
		<path fill="#D0F2FC" d="M458.2,45.7h-14.6c-1.2,0-2.1-0.9-2.1-2.1c0-1.2,0.9-2.1,2.1-2.1h14.6c1.2,0,2.1,0.9,2.1,2.1
			C460.3,44.8,459.3,45.7,458.2,45.7z"/>
		<g>
			<path fill="#85D0F9" d="M447,113.7h-11.8c-1.2,0-2.1-0.9-2.1-2.1c0-1.2,0.9-2.1,2.1-2.1H447c1.2,0,2.1,0.9,2.1,2.1
				C449.1,112.8,448.1,113.7,447,113.7z"/>
			<path fill="#85D0F9" d="M447,120.9h-11.8c-1.2,0-2.1-0.9-2.1-2.1c0-1.2,0.9-2.1,2.1-2.1H447c1.2,0,2.1,0.9,2.1,2.1
				C449.1,119.9,448.1,120.9,447,120.9z"/>
			<path fill="#85D0F9" d="M447,128h-11.8c-1.2,0-2.1-0.9-2.1-2.1c0-1.2,0.9-2.1,2.1-2.1H447c1.2,0,2.1,0.9,2.1,2.1
				C449.1,127.1,448.1,128,447,128z"/>
			<path fill="#85D0F9" d="M494.2,72.1c-0.1,0-0.2,0-0.4,0l-11.5-2c-1.1-0.2-1.9-1.3-1.7-2.4c0.2-1.1,1.3-1.9,2.4-1.7l11.5,2
				c1.1,0.2,1.9,1.3,1.7,2.4C496.1,71.4,495.2,72.1,494.2,72.1z"/>
			<path fill="#85D0F9" d="M497.3,80.4c-0.1,0-0.3,0-0.4,0l-14.6-3.1c-1.1-0.2-1.9-1.3-1.6-2.5c0.2-1.1,1.3-1.9,2.5-1.6l14.6,3.1
				c1.1,0.2,1.9,1.3,1.6,2.5C499.1,79.7,498.3,80.4,497.3,80.4z"/>
			<path fill="#85D0F9" d="M489.1,86.4c-0.2,0-0.4,0-0.5-0.1l-6.4-1.7c-1.1-0.3-1.8-1.4-1.5-2.6c0.3-1.1,1.4-1.8,2.6-1.5l6.4,1.7
				c1.1,0.3,1.8,1.4,1.5,2.6C490.9,85.8,490,86.4,489.1,86.4z"/>
		</g>
		<path fill="#D1D0D6" d="M458.7,68.2h-6.5c-1.2,0-2.1-0.9-2.1-2.1c0-1.2,0.9-2.1,2.1-2.1h6.5c1.2,0,2.1,0.9,2.1,2.1
			C460.8,67.2,459.9,68.2,458.7,68.2z"/>
		<path fill="#D1D0D6" d="M458.7,75.3h-6.5c-1.2,0-2.1-0.9-2.1-2.1c0-1.2,0.9-2.1,2.1-2.1h6.5c1.2,0,2.1,0.9,2.1,2.1
			C460.8,74.4,459.9,75.3,458.7,75.3z"/>
		<path fill="#D1D0D6" d="M458.7,82.5h-6.5c-1.2,0-2.1-0.9-2.1-2.1c0-1.2,0.9-2.1,2.1-2.1h6.5c1.2,0,2.1,0.9,2.1,2.1
			C460.8,81.5,459.9,82.5,458.7,82.5z"/>
		<path fill="#6CB964" d="M445.9,68.2h-0.1c-1.2,0-2.1-0.9-2.1-2.1c0-1.2,0.9-2.1,2.1-2.1h0.1c1.2,0,2.1,0.9,2.1,2.1
			C448,67.2,447.1,68.2,445.9,68.2z"/>
		<path fill="#48A4EF" d="M445.9,75.3h-0.1c-1.2,0-2.1-0.9-2.1-2.1c0-1.2,0.9-2.1,2.1-2.1h0.1c1.2,0,2.1,0.9,2.1,2.1
			C448,74.4,447.1,75.3,445.9,75.3z"/>
		<path fill="#FAB94F" d="M445.9,82.5h-0.1c-1.2,0-2.1-0.9-2.1-2.1c0-1.2,0.9-2.1,2.1-2.1h0.1c1.2,0,2.1,0.9,2.1,2.1
			C448,81.5,447.1,82.5,445.9,82.5z"/>
		<path fill="#FAB94F" d="M430.9,82.7c-5.2,0-9.4-4.2-9.4-9.4c0-5.2,4.2-9.4,9.4-9.4c1.2,0,2.1,0.9,2.1,2.1s-0.9,2.1-2.1,2.1
			c-2.9,0-5.2,2.4-5.2,5.2c0,2.9,2.4,5.2,5.2,5.2c1.2,0,2.1,0.9,2.1,2.1C433,81.7,432.1,82.7,430.9,82.7z"/>
		<path fill="#48A4EF" d="M430.9,82.7c-1.2,0-2.1-0.9-2.1-2.1c0-1.2,0.9-2.1,2.1-2.1c2.9,0,5.2-2.4,5.2-5.2c0-1.2,0.9-2.1,2.1-2.1
			c1.2,0,2.1,0.9,2.1,2.1C440.4,78.4,436.1,82.7,430.9,82.7z"/>
		<path fill="#6CB964" d="M438.3,75.3c-1.2,0-2.1-0.9-2.1-2.1c0-2.9-2.4-5.2-5.2-5.2c-1.2,0-2.1-0.9-2.1-2.1c0-1.2,0.9-2.1,2.1-2.1
			c5.2,0,9.4,4.2,9.4,9.4C440.4,74.4,439.4,75.3,438.3,75.3z"/>
		<path fill="#7DCF74" d="M480.4,38.3c-1.2,0-2.1,0.9-2.1,2.1v4.5c0,1.2,0.9,2.1,2.1,2.1c1.2,0,2.1-0.9,2.1-2.1v-4.5
			C482.5,39.2,481.5,38.3,480.4,38.3z"/>
		<path fill="#7DCF74" d="M499.6,30c-1.2,0-2.1,0.9-2.1,2.1v12.8c0,1.2,0.9,2.1,2.1,2.1c1.2,0,2.1-0.9,2.1-2.1V32
			C501.7,30.9,500.7,30,499.6,30z"/>
		<path fill="#7DCF74" d="M493.2,37.8c-1.2,0-2.1,0.9-2.1,2.1v5c0,1.2,0.9,2.1,2.1,2.1c1.2,0,2.1-0.9,2.1-2.1v-5
			C495.3,38.7,494.3,37.8,493.2,37.8z"/>
		<path fill="#7DCF74" d="M486.8,35.5c-1.2,0-2.1,0.9-2.1,2.1v7.2c0,1.2,0.9,2.1,2.1,2.1s2.1-0.9,2.1-2.1v-7.2
			C488.9,36.5,487.9,35.5,486.8,35.5z"/>
		<path fill="#F79552" d="M401.8,46.9c-1.2,0-2.1-0.9-2.1-2.1v-4.5c0-1.2,0.9-2.1,2.1-2.1c1.2,0,2.1,0.9,2.1,2.1v4.5
			C403.8,46,402.9,46.9,401.8,46.9z"/>
		<path fill="#F79552" d="M382.6,46.9c-1.2,0-2.1-0.9-2.1-2.1V32c0-1.2,0.9-2.1,2.1-2.1c1.2,0,2.1,0.9,2.1,2.1v12.8
			C384.7,46,383.7,46.9,382.6,46.9z"/>
		<path fill="#F79552" d="M389,46.9c-1.2,0-2.1-0.9-2.1-2.1v-5c0-1.2,0.9-2.1,2.1-2.1c1.2,0,2.1,0.9,2.1,2.1v5
			C391.1,46,390.1,46.9,389,46.9z"/>
		<path fill="#F79552" d="M395.4,46.9c-1.2,0-2.1-0.9-2.1-2.1v-7.2c0-1.2,0.9-2.1,2.1-2.1c1.2,0,2.1,0.9,2.1,2.1v7.2
			C397.5,46,396.5,46.9,395.4,46.9z"/>
		<path fill="#FEDC4C" d="M403,67.7c-0.9-0.7-2.2-0.5-2.9,0.5l-6.9,9.6l-2.9-2.2c-1-0.7-2.3-0.5-3,0.5l-6.4,9.1
			c-0.7,0.9-0.4,2.2,0.5,2.9c0.9,0.7,2.3,0.4,2.9-0.5l5.2-7.3c2.2,1.4,3.2,3.1,4.8,2.5c0.3-0.1,0.6-0.3,0.8-0.5
			c0.2-0.2-0.1,0.2,8.4-11.5C404.1,69.6,403.9,68.3,403,67.7z"/>
		<path fill="#FAB94F" d="M430.9,63.8c-5.2,0-9.4,4.2-9.4,9.4v0h4.2v0c0-2.9,2.4-5.2,5.2-5.2c1.2,0,2.1-0.9,2.1-2.1
			C433,64.7,432.1,63.8,430.9,63.8z"/>
	</g>
	<text transform="matrix(1 0 0 1 355.4314 132.377)"><tspan x="0" y="0" fill="#3050B7" font-family="'MyriadPro-Regular'" font-size="12">Operator </tspan><tspan x="3.7" y="14.4" fill="#3050B7" font-family="'MyriadPro-Regular'" font-size="12">Console</tspan></text>
	<g>
		<text transform="matrix(1 0 0 1 495.9813 448.5946)" fill="#3050B7" font-family="'MyriadPro-Regular'" font-size="12">PA Speakers</text>
	</g>
	<g>
		<text transform="matrix(1 0 0 1 585.7086 434.8016)" fill="#3050B7" font-family="'MyriadPro-Regular'" font-size="12">ECB</text>
	</g>
	<path fill="none" stroke="#000000" stroke-miterlimit="10" d="M491.6,330.9v19.2c0,1,0.8,1.8,1.8,1.8h28c1,0,1.8,0.8,1.8,1.8v14
		c0,1,0.8,1.8,1.8,1.8l0,0c1,0,1.8-0.8,1.8-1.8v-16.8c0-1-0.8-1.8-1.8-1.8h-27c-1,0-1.8-0.8-1.8-1.8v-16.3c0-1.3-1-2.3-2.3-2.3l0,0
		C492.7,328.6,491.6,329.6,491.6,330.9z"/>
	<path fill="none" stroke="#000000" stroke-miterlimit="10" d="M561.7,330.7v29.1c0,0.9,0.7,1.6,1.6,1.6h39.5c0.9,0,1.6,0.7,1.6,1.6
		v22.5c0,0.9,0.7,1.6,1.6,1.6h0c0.9,0,1.6-0.7,1.6-1.6v-25.4c0-0.9-0.7-1.6-1.6-1.6H568c-0.9,0-1.6-0.7-1.6-1.6v-26.2
		c0-0.9-0.7-1.6-1.6-1.6h-1.4C562.4,329.1,561.7,329.8,561.7,330.7z"/>
	<path fill="none" stroke="#000000" stroke-miterlimit="10" d="M503.8,415.1v-18.8c0-0.8,0.7-1.5,1.5-1.5h16.9
		c0.8,0,1.5-0.7,1.5-1.5v-10.7c0-0.8,0.7-1.5,1.5-1.5l0,0c0.8,0,1.5,0.7,1.5,1.5v10.7c0,0.8,0.7,1.5,1.5,1.5H540
		c0.8,0,1.5,0.7,1.5,1.5v18.1c0,0.8-0.7,1.5-1.5,1.5h-0.1c-0.8,0-1.5-0.7-1.5-1.5v-15c0-0.8-0.7-1.5-1.5-1.5h-27.7
		c-0.8,0-1.5,0.7-1.5,1.5v15.3c0,0.7-0.4,1.3-1.1,1.4l-0.9,0.3C504.7,416.8,503.8,416.1,503.8,415.1z"/>
	<path fill="#91BAE1" d="M541.4,384.9h-33.8c-1.3,0-2.3-1-2.3-2.3v-12c0-1.3,1-2.3,2.3-2.3h33.8c1.3,0,2.3,1,2.3,2.3v12
		C543.6,383.9,542.6,384.9,541.4,384.9z"/>
	
		<text transform="matrix(1 0 0 1 511.4128 379.867)" stroke="#000000" stroke-miterlimit="10" font-family="'MyriadPro-Regular'" font-size="11">A M P</text>
	<g>
		<path fill="#91AEE2" d="M630.7,386.6v33.8c0,0.6-0.5,1.1-1.1,1.1h-50c-0.6,0-1.1-0.5-1.1-1.1v-33.8c0-0.6,0.5-1.1,1.1-1.1h50
			C630.2,385.5,630.7,386,630.7,386.6z"/>
		<path fill="#BACBEC" d="M630.7,386.6v32h-48.3c-0.6,0-1.1-0.5-1.1-1.1v-32h48.3C630.2,385.5,630.7,386,630.7,386.6z"/>
		<path fill="#4172CC" d="M628,409.9v8.1c0,0.3-0.2,0.5-0.5,0.5h-24.4c-0.3,0-0.5-0.2-0.5-0.5v-8.1c0-0.3,0.2-0.5,0.5-0.5h24.4
			C627.8,409.3,628,409.6,628,409.9z"/>
		<path fill="#274C91" d="M621.5,414.7v3.8h-1.6v-3.8c0-0.4,0.4-0.8,0.8-0.8C621.1,413.9,621.5,414.3,621.5,414.7z"/>
		<path fill="#274C91" d="M625.1,414.7v3.8h-1.6v-3.8c0-0.4,0.4-0.8,0.8-0.8C624.7,413.9,625.1,414.3,625.1,414.7z"/>
		<path fill="#1AB975" d="M597.5,417h-4.4c-0.5,0-0.9-0.4-0.9-0.9v-4.4c0-0.5,0.4-0.9,0.9-0.9h4.4c0.5,0,0.9,0.4,0.9,0.9v4.4
			C598.3,416.6,597.9,417,597.5,417z"/>
		<path fill="#1AB975" d="M585.3,417c-1.7,0-3-1.4-3-3s1.4-3,3-3c1.7,0,3,1.4,3,3S587,417,585.3,417z"/>
		<path fill="#F44545" d="M602.9,390.7c0,0.7-0.6,1.3-1.3,1.3c-0.7,0-1.3-0.6-1.3-1.3c0-0.7,0.6-1.3,1.3-1.3
			C602.3,389.4,602.9,390,602.9,390.7z"/>
		<path fill="#F44545" d="M607.6,390.7c0,0.7-0.6,1.3-1.3,1.3c-0.7,0-1.3-0.6-1.3-1.3c0-0.7,0.6-1.3,1.3-1.3
			C607,389.4,607.6,390,607.6,390.7z"/>
		<path fill="#F44545" d="M612.4,390.7c0,0.7-0.6,1.3-1.3,1.3s-1.3-0.6-1.3-1.3c0-0.7,0.6-1.3,1.3-1.3S612.4,390,612.4,390.7z"/>
		<path fill="#4172CC" d="M601.5,393.6c-0.4,0-0.8,0.4-0.8,0.8v12.2c0,0.4,0.4,0.8,0.8,0.8c0.4,0,0.8-0.4,0.8-0.8v-12.2
			C602.3,394,602,393.6,601.5,393.6z"/>
		<path fill="#4172CC" d="M606.3,393.6c-0.4,0-0.8,0.4-0.8,0.8v12.2c0,0.4,0.4,0.8,0.8,0.8c0.4,0,0.8-0.4,0.8-0.8v-12.2
			C607.1,394,606.7,393.6,606.3,393.6z"/>
		<path fill="#4172CC" d="M611,393.6c-0.4,0-0.8,0.4-0.8,0.8v12.2c0,0.4,0.4,0.8,0.8,0.8c0.4,0,0.8-0.4,0.8-0.8v-12.2
			C611.8,394,611.5,393.6,611,393.6z"/>
		<path fill="#4172CC" d="M615.8,393.6c-0.4,0-0.8,0.4-0.8,0.8v12.2c0,0.4,0.4,0.8,0.8,0.8c0.4,0,0.8-0.4,0.8-0.8v-12.2
			C616.6,394,616.2,393.6,615.8,393.6z"/>
		<path fill="#F44545" d="M617.1,390.7c0,0.7-0.6,1.3-1.3,1.3c-0.7,0-1.3-0.6-1.3-1.3c0-0.7,0.6-1.3,1.3-1.3
			C616.5,389.4,617.1,390,617.1,390.7z"/>
		<g>
			<path fill="#4172CC" d="M627.1,397.6h-6.4c-0.5,0-0.9-0.4-0.9-0.9v-2.2c0-0.5,0.4-0.9,0.9-0.9h6.4c0.5,0,0.9,0.4,0.9,0.9v2.2
				C628,397.2,627.6,397.6,627.1,397.6z"/>
			<path fill="#4172CC" d="M627.1,404.5h-6.4c-0.5,0-0.9-0.4-0.9-0.9v-2.2c0-0.5,0.4-0.9,0.9-0.9h6.4c0.5,0,0.9,0.4,0.9,0.9v2.2
				C628,404.1,627.6,404.5,627.1,404.5z"/>
			<path fill="#4172CC" d="M584.3,407.7h-2.4c-0.3,0-0.5-0.2-0.5-0.5v-18.1c0-0.3,0.2-0.5,0.5-0.5h2.4c0.3,0,0.5,0.2,0.5,0.5v18.1
				C584.8,407.5,584.6,407.7,584.3,407.7z"/>
			<path fill="#4172CC" d="M590.4,407.7H588c-0.3,0-0.5-0.2-0.5-0.5v-18.1c0-0.3,0.2-0.5,0.5-0.5h2.4c0.3,0,0.5,0.2,0.5,0.5v18.1
				C591,407.5,590.7,407.7,590.4,407.7z"/>
			<path fill="#4172CC" d="M596.6,407.7h-2.4c-0.3,0-0.5-0.2-0.5-0.5v-18.1c0-0.3,0.2-0.5,0.5-0.5h2.4c0.3,0,0.5,0.2,0.5,0.5v18.1
				C597.1,407.5,596.9,407.7,596.6,407.7z"/>
		</g>
	</g>
	<g>
		<circle fill="#FF553E" cx="507.8" cy="425.2" r="11.1"/>
		<polygon fill="#FBD303" points="506.1,428.5 507.7,431 506.7,432.2 		"/>
		<path fill="#6EB1E1" d="M506.8,419.7h-6.1c-0.3,0-0.5,0.2-0.5,0.5v6.8c0,0.3,0.2,0.5,0.5,0.5h6.1c0.3,0,0.5-0.2,0.5-0.5v-6.7
			C507.3,420,507.1,419.7,506.8,419.7z"/>
		<path fill="#71D456" d="M499.2,421.4c-0.4,0-0.7,0.3-0.7,0.7v3.1c0,0.4,0.3,0.7,0.7,0.7h1v-4.5H499.2z"/>
		<polygon fill="#F1F3F7" points="515.6,430.2 507.3,426.9 507.3,420.4 515.6,417.1 		"/>
		<path fill="#71D456" d="M516.3,416.2c-0.4,0-0.7,0.3-0.7,0.7v13.4c0,0.4,0.3,0.7,0.7,0.7c0.4,0,0.7-0.3,0.7-0.7v-13.4
			C517,416.6,516.7,416.2,516.3,416.2z"/>
		<polygon fill="#646B79" points="507.5,434.8 504.5,434.8 501.3,427.5 506,427.5 		"/>
		<g>
			<path fill="#5EA6D1" d="M505.5,421.1H502c-0.2,0-0.4,0.2-0.4,0.4c0,0.2,0.2,0.4,0.4,0.4h3.5c0.2,0,0.4-0.2,0.4-0.4
				C505.9,421.3,505.7,421.1,505.5,421.1z"/>
			<path fill="#5EA6D1" d="M505.5,423.2H502c-0.2,0-0.4,0.2-0.4,0.4c0,0.2,0.2,0.4,0.4,0.4h3.5c0.2,0,0.4-0.2,0.4-0.4
				C505.9,423.4,505.7,423.2,505.5,423.2z"/>
			<path fill="#5EA6D1" d="M505.5,425.3H502c-0.2,0-0.4,0.2-0.4,0.4c0,0.2,0.2,0.4,0.4,0.4h3.5c0.2,0,0.4-0.2,0.4-0.4
				C505.9,425.5,505.7,425.3,505.5,425.3z"/>
		</g>
	</g>
	<g>
		<circle fill="#FF553E" cx="540.9" cy="424.9" r="11.1"/>
		<polygon fill="#FBD303" points="539.2,428.2 540.8,430.7 539.8,431.8 		"/>
		<path fill="#6EB1E1" d="M539.9,419.4h-6.1c-0.3,0-0.5,0.2-0.5,0.5v6.8c0,0.3,0.2,0.5,0.5,0.5h6.1c0.3,0,0.5-0.2,0.5-0.5v-6.7
			C540.4,419.6,540.2,419.4,539.9,419.4z"/>
		<path fill="#71D456" d="M532.3,421c-0.4,0-0.7,0.3-0.7,0.7v3.1c0,0.4,0.3,0.7,0.7,0.7h1V421H532.3z"/>
		<polygon fill="#F1F3F7" points="548.7,429.9 540.4,426.5 540.4,420.1 548.7,416.7 		"/>
		<path fill="#71D456" d="M549.4,415.9c-0.4,0-0.7,0.3-0.7,0.7V430c0,0.4,0.3,0.7,0.7,0.7c0.4,0,0.7-0.3,0.7-0.7v-13.4
			C550.1,416.2,549.8,415.9,549.4,415.9z"/>
		<polygon fill="#646B79" points="540.6,434.5 537.6,434.5 534.4,427.2 539.1,427.2 		"/>
		<g>
			<path fill="#5EA6D1" d="M538.6,420.8h-3.5c-0.2,0-0.4,0.2-0.4,0.4c0,0.2,0.2,0.4,0.4,0.4h3.5c0.2,0,0.4-0.2,0.4-0.4
				C539,421,538.8,420.8,538.6,420.8z"/>
			<path fill="#5EA6D1" d="M538.6,422.9h-3.5c-0.2,0-0.4,0.2-0.4,0.4c0,0.2,0.2,0.4,0.4,0.4h3.5c0.2,0,0.4-0.2,0.4-0.4
				C539,423.1,538.8,422.9,538.6,422.9z"/>
			<path fill="#5EA6D1" d="M538.6,425h-3.5c-0.2,0-0.4,0.2-0.4,0.4c0,0.2,0.2,0.4,0.4,0.4h3.5c0.2,0,0.4-0.2,0.4-0.4
				C539,425.2,538.8,425,538.6,425z"/>
		</g>
	</g>
	<rect x="308.1" y="382.7" fill="none" stroke="#000000" stroke-miterlimit="10" width="71.2" height="10.6"/>
	<g>
		<text transform="matrix(1 0 0 1 379.3531 452.3185)" fill="#3050B7" font-family="'MyriadPro-Regular'" font-size="12">Update</text>
	</g>
	<g>
		<text transform="matrix(1 0 0 1 416.5135 400.9165)"><tspan x="0" y="0" fill="#3050B7" font-family="'MyriadPro-Regular'" font-size="12">Hot List </tspan><tspan x="8.6" y="14.4" fill="#3050B7" font-family="'MyriadPro-Regular'" font-size="12">Data</tspan></text>
	</g>
	<g>
		<text transform="matrix(1 0 0 1 257.2126 354.5556)"><tspan x="0" y="0" fill="#3050B7" font-family="'MyriadPro-Regular'" font-size="12">ANPR/SVD </tspan><tspan x="6.1" y="14.4" fill="#3050B7" font-family="'MyriadPro-Regular'" font-size="12">Cameras</tspan></text>
	</g>
	<g>
		<text transform="matrix(1 0 0 1 322.875 380.4073)" fill="#3050B7" font-family="'MyriadPro-Regular'" font-size="7.9067">Live Video</text>
	</g>
	<path fill="none" stroke="#000000" stroke-miterlimit="10" d="M399.6,327v25.3c0,0.7-0.5,1.2-1.2,1.2h-9.9c-0.7,0-1.2,0.5-1.2,1.2
		v23.8c0,0.7,0.5,1.2,1.2,1.2h0.5c0.7,0,1.2-0.5,1.2-1.2V359c0-0.7,0.5-1.2,1.2-1.2h9.5c0.7,0,1.2-0.5,1.2-1.2V327
		c0-0.7-0.5-1.2-1.2-1.2l0,0C400.2,325.9,399.6,326.4,399.6,327z"/>
	<g>
		<text transform="matrix(1 0 0 1 413.0173 355.9083)"><tspan x="0" y="0" fill="#3050B7" font-family="'MyriadPro-Regular'" font-size="12">Junction </tspan><tspan x="7" y="14.4" fill="#3050B7" font-family="'MyriadPro-Regular'" font-size="12">Server</tspan></text>
	</g>
	<g>
		<path fill="#67B9CC" d="M314,389.2c-0.3,0.9-0.9,1.7-1.5,2.4c-1.4,1.4-3.4,2-5.3,1.8l-5.3-3.2l0.8-0.9l5.6-6.6l5.9,2.2
			C314.5,386.2,314.5,387.8,314,389.2z"/>
		<path fill="#2FA8CC" d="M312.5,391.5c-1.4,1.4-3.4,2-5.3,1.8l-5.3-3.2l0.8-0.9l1.8-0.2C304.3,389,309.8,387.9,312.5,391.5z"/>
		<path fill="#7F8C8D" d="M283.3,393.9v4.9c0,1.6-1.3,2.9-2.9,2.9h-4.3v-2.9h2.9c0.8,0,1.4-0.6,1.4-1.4V393L283.3,393.9z"/>
		<g>
			<path fill="#3F5C6C" d="M276.1,406c-0.4,0-0.7-0.3-0.7-0.7v-10.1c0-0.4,0.3-0.7,0.7-0.7c0.4,0,0.7,0.3,0.7,0.7v10.1
				C276.8,405.6,276.5,406,276.1,406z"/>
			<path fill="#3F5C6C" d="M316.5,381l-32.5-12.1c-1.5-0.6-3.1,0.2-3.7,1.7l-1.8,4.7l-0.5,1.4l-0.7,2l-1,2.7
				c-0.2,0.7-0.2,1.5,0.1,2.2c0.3,0.7,0.9,1.2,1.6,1.5l0.6,0.2l-0.2,4c0,0.3,0.2,0.6,0.5,0.7l5.3,1.9l-4.5-1.7
				c-0.5,1.5,0.2,3.1,1.8,3.6c1.4,0.6,3.1-0.2,3.7-1.6l1,0.4c0.3,0.1,0.6,0,0.8-0.2l2.5-3.1L305,395c0.3,0.2,0.7,0.1,1.1,0
				c0.3-0.2,0.6-0.5,0.7-0.8l1.5-4.1l8.5-8c0.2-0.2,0.2-0.4,0.2-0.6C316.9,381.2,316.8,381.1,316.5,381z"/>
			<path fill="#3F5C6C" d="M316.8,382.1l-8.5,8l-30.9-11.5l0.7-2l0.5-1.4l1.8-4.7c0.6-1.5,2.2-2.2,3.7-1.7l32.5,12.1
				c0.2,0.1,0.4,0.3,0.5,0.6C317.1,381.7,317,382,316.8,382.1z"/>
		</g>
		<path fill="#35495E" d="M277.4,378.6l30.9,11.5l-1.5,4.1c-0.2,0.3-0.4,0.6-0.7,0.8s-0.7,0.2-1.1,0L278,384.9
			c-1.5-0.6-2.2-2.2-1.7-3.7L277.4,378.6z"/>
		<path fill="#67B9CC" d="M306.6,387.1c-0.1,0-0.2,0-0.2-0.1l-0.6-0.2c-0.2-0.1-0.4-0.3-0.5-0.6c-0.1-0.2,0.1-0.5,0.2-0.6
			c0.2-0.2,0.5-0.2,0.7-0.1l0.6,0.2c0.3,0.2,0.6,0.5,0.5,0.8C307.2,386.9,307,387.1,306.6,387.1z"/>
		<path fill="#67B9CC" d="M303.9,385.4c-0.1,0.3-0.4,0.5-0.6,0.5c-0.1,0-0.2,0-0.2-0.1l-24.9-9.3l0.5-1.4l24.9,9.3
			C303.8,384.7,304,385.1,303.9,385.4z"/>
		<path fill="#2C3E50" d="M286.1,392.6l-7.2-2.6c-0.3-0.1-0.5-0.4-0.5-0.7l0.2-4.1l10.8,4.1l-2.6,3.2
			C286.8,392.6,286.5,392.6,286.1,392.6z"/>
		<path fill="#95A5A5" d="M285.2,392.2c-0.6,1.4-2.2,2.2-3.7,1.6c-1.4-0.6-2.2-2.2-1.8-3.7L285.2,392.2z"/>
	</g>
	<path fill="none" stroke="#000000" stroke-miterlimit="10" d="M300.5,439.5h87.8c1.8,0,3.3-1.5,3.3-3.3v-20.1
		c0-1.8-1.5-3.3-3.3-3.3H388c-1.8,0-3.3,1.5-3.3,3.3v13.5c0,1.8-1.5,3.3-3.3,3.3h-80.9c-1.8,0-3.3,1.5-3.3,3.3v0
		C297.2,438,298.7,439.5,300.5,439.5z"/>
	<g>
		<path fill="#EDF5FF" d="M285.1,452.3c-10,0-18.3-8.1-18.3-18.2v-2.5c0-0.7,0.6-1.2,1.2-1.2h34.1c0.7,0,1.2,0.6,1.2,1.2v2.5
			C303.4,444.1,295.2,452.3,285.1,452.3"/>
		<path fill="#D7E9FF" d="M285.1,452.3v-21.8h17c0.7,0,1.2,0.6,1.2,1.2v2.5C303.4,444.1,295.2,452.3,285.1,452.3"/>
		<path fill="#596C76" d="M291.2,431.7v9.7h-12.1v-9.7c0-0.7,0.6-1.2,1.2-1.2h9.7C290.7,430.5,291.2,431,291.2,431.7z"/>
		<path fill="#3B4A51" d="M291.2,431.7v9.7h-6.1v-10.9h4.8C290.7,430.5,291.2,431,291.2,431.7z"/>
		<path fill="#9DC1FF" d="M285.1,435.3c-3.4,0-6.1,2.7-6.1,6.1c0,3.4,2.7,6.1,6.1,6.1s6.1-2.7,6.1-6.1
			C291.2,438,288.5,435.3,285.1,435.3z"/>
		<path fill="#6396ED" d="M291.2,441.4c0,3.4-2.7,6.1-6.1,6.1v-12.1C288.5,435.3,291.2,438,291.2,441.4z"/>
		<path fill="#596C76" d="M288.8,441.4c0,2-1.6,3.6-3.6,3.6c-2,0-3.6-1.6-3.6-3.6s1.6-3.6,3.6-3.6
			C287.2,437.8,288.8,439.4,288.8,441.4z"/>
		<path fill="#3B4A51" d="M288.8,441.4c0,2-1.6,3.6-3.6,3.6v-7.3C287.2,437.8,288.8,439.4,288.8,441.4z"/>
		<path fill="#EDF5FF" d="M286.3,441.4c0,0.7-0.6,1.2-1.2,1.2c-0.7,0-1.2-0.6-1.2-1.2c0-0.7,0.6-1.2,1.2-1.2
			C285.8,440.2,286.3,440.7,286.3,441.4z"/>
		<path fill="#D7E9FF" d="M285.1,442.6v-2.5c0.7,0,1.2,0.6,1.2,1.2C286.3,442.1,285.8,442.6,285.1,442.6z"/>
		<path fill="#697C86" d="M304.6,425.6h-38.9c-0.7,0-1.2,0.6-1.2,1.2v2.5c0,2,1.6,3.6,3.6,3.6h34.1c2,0,3.6-1.6,3.6-3.6v-2.5
			C305.8,426.1,305.3,425.6,304.6,425.6z"/>
		<path fill="#596C76" d="M305.8,426.8v2.5c0,2-1.6,3.6-3.6,3.6h-17v-7.4h19.5C305.3,425.6,305.8,426.1,305.8,426.8z"/>
	</g>
	<g>
		<g>
			<path fill="#545E73" d="M412.9,383.4L412.9,383.4c-0.6-3.9-10-7.1-21.3-7.1c-11.4,0-20.7,3.1-21.3,7.1l0,0h-0.1v0.5v10.2v0.5v0.5
				v9.8v0.5v0.5v10.7h0.1c0.6,3.9,10,7.1,21.3,7.1c11.4,0,20.7-3.1,21.3-7.1h0.1v-10.7v-0.5v-0.5V395v-0.5v-0.5v-10.2L412.9,383.4
				L412.9,383.4z"/>
			<g>
				<path fill="#38454F" d="M391.6,412.8c-11.8,0-21.4-3.4-21.4-7.6v11.2h0.1c0.6,3.9,10,7.1,21.3,7.1c11.4,0,20.7-3.1,21.3-7.1h0.1
					v-11.2C412.9,409.4,403.3,412.8,391.6,412.8z"/>
				<path fill="#38454F" d="M370.2,404.8v0.5C370.2,405.1,370.2,404.9,370.2,404.8L370.2,404.8z"/>
				<path fill="#38454F" d="M412.9,404.8c0,0.2,0.1,0.3,0.1,0.5L412.9,404.8L412.9,404.8z"/>
			</g>
			<g>
				<path fill="#556080" d="M391.6,402.1c-11.8,0-21.4-3.4-21.4-7.6v11.2h0.1c0.6,3.9,10,7.1,21.3,7.1c11.4,0,20.7-3.1,21.3-7.1h0.1
					v-11.2C412.9,398.7,403.3,402.1,391.6,402.1z"/>
				<path fill="#556080" d="M370.2,394.1v0.5C370.2,394.4,370.2,394.2,370.2,394.1L370.2,394.1z"/>
				<path fill="#556080" d="M412.9,394.1c0,0.2,0.1,0.3,0.1,0.5L412.9,394.1L412.9,394.1z"/>
			</g>
			<ellipse fill="#91BAE1" cx="391.6" cy="383.9" rx="21.4" ry="7.6"/>
			<g>
				<path fill="#8697CB" d="M391.6,391.4c-11.8,0-21.4-3.4-21.4-7.6V395h0.1c0.6,3.9,10,7.1,21.3,7.1c11.4,0,20.7-3.1,21.3-7.1h0.1
					v-11.2C412.9,388,403.3,391.4,391.6,391.4z"/>
				<path fill="#8697CB" d="M370.2,383.4v0.5C370.2,383.7,370.2,383.5,370.2,383.4L370.2,383.4z"/>
				<path fill="#8697CB" d="M412.9,383.4c0,0.2,0.1,0.3,0.1,0.5L412.9,383.4L412.9,383.4z"/>
			</g>
		</g>
		<g>
			<path fill="#BDC3C7" d="M418.3,415.3l-1.3-0.2c-1.9-0.3-2.8-2.6-1.7-4.2l0.8-1.1l-1.8-1.7l-1.1,0.7c-1.6,1.1-3.8,0.1-4.1-1.8
				l-0.2-1.4h-2.5l-0.3,1.7c-0.3,1.9-2.5,2.7-4.1,1.7l-1.4-1l-1.8,1.7l0.8,1.1c1.1,1.5,0.3,3.8-1.7,4.2l-1.3,0.2v2.5l1.4,0.2
				c1.9,0.3,2.9,2.5,1.8,4.1l-0.7,1.1l1.8,1.7l1.1-0.8c1.5-1.1,3.8-0.3,4.2,1.7l0.2,1.3h2.5l0.2-1c0.3-1.9,2.6-2.9,4.2-1.7l0.8,0.6
				l1.8-1.7l-0.7-1.1c-1.1-1.6-0.1-3.8,1.8-4.1l1.4-0.2L418.3,415.3L418.3,415.3z"/>
			<g>
				<circle fill="#FFFFFF" cx="407.6" cy="416.4" r="3.5"/>
				<path fill="#ECF0F1" d="M407.6,420.8c-2.5,0-4.5-2-4.5-4.5s2-4.5,4.5-4.5c2.5,0,4.5,2,4.5,4.5S410,420.8,407.6,420.8z
					 M407.6,413.7c-1.5,0-2.7,1.2-2.7,2.7s1.2,2.7,2.7,2.7s2.7-1.2,2.7-2.7C410.3,414.9,409.1,413.7,407.6,413.7z"/>
			</g>
		</g>
	</g>
	<path fill="#FFFFFF" stroke="#3050B7" stroke-miterlimit="10" d="M645.9,332.2H107.3c-1.1,0-2.1-0.9-2.1-2.1v-22
		c0-1.1,0.9-2.1,2.1-2.1h538.5c1.1,0,2.1,0.9,2.1,2.1v22C647.9,331.3,647,332.2,645.9,332.2z"/>
	<g>
		<text transform="matrix(1 0 0 1 329.0988 322.6841)" fill="#3050B7" font-family="'MyriadPro-Regular'" font-size="12">Network Backbone</text>
	</g>
	<g>
		<g>
			<path fill="#556080" d="M244.5,200.9h-66.3c-2.6,0-4.7-2.1-4.7-4.7v-15.4c0-2.6,2.1-4.7,4.7-4.7h66.3c2.6,0,4.7,2.1,4.7,4.7v15.4
				C249.2,198.8,247.1,200.9,244.5,200.9z"/>
			<path fill="#38454F" d="M244.5,225.7h-66.3c-2.6,0-4.7-2.1-4.7-4.7v-15.4c0-2.6,2.1-4.7,4.7-4.7h66.3c2.6,0,4.7,2.1,4.7,4.7V221
				C249.2,223.6,247.1,225.7,244.5,225.7z"/>
			<path fill="#556080" d="M244.5,250.5h-66.3c-2.6,0-4.7-2.1-4.7-4.7v-15.4c0-2.6,2.1-4.7,4.7-4.7h66.3c2.6,0,4.7,2.1,4.7,4.7v15.4
				C249.2,248.4,247.1,250.5,244.5,250.5z"/>
			<circle fill="#8697CB" cx="185.9" cy="188.5" r="4.6"/>
			<circle fill="#8697CB" cx="237.4" cy="186.5" r="1.3"/>
			<circle fill="#8697CB" cx="232.2" cy="186.5" r="1.3"/>
			<circle fill="#8697CB" cx="240" cy="190.5" r="1.3"/>
			<circle fill="#8697CB" cx="234.8" cy="190.5" r="1.3"/>
			<circle fill="#8697CB" cx="227" cy="186.5" r="1.3"/>
			<circle fill="#8697CB" cx="229.6" cy="190.5" r="1.3"/>
			<circle fill="#8697CB" cx="221.8" cy="186.5" r="1.3"/>
			<circle fill="#8697CB" cx="224.4" cy="190.5" r="1.3"/>
			<circle fill="#8697CB" cx="216.5" cy="186.5" r="1.3"/>
			<circle fill="#8697CB" cx="219.2" cy="190.5" r="1.3"/>
			<circle fill="#8697CB" cx="185.9" cy="213.3" r="4.6"/>
			<circle fill="#8697CB" cx="237.4" cy="211.3" r="1.3"/>
			<circle fill="#8697CB" cx="232.2" cy="211.3" r="1.3"/>
			<circle fill="#8697CB" cx="240" cy="215.3" r="1.3"/>
			<circle fill="#8697CB" cx="234.8" cy="215.3" r="1.3"/>
			<circle fill="#8697CB" cx="227" cy="211.3" r="1.3"/>
			<circle fill="#8697CB" cx="229.6" cy="215.3" r="1.3"/>
			<circle fill="#8697CB" cx="221.8" cy="211.3" r="1.3"/>
			<circle fill="#8697CB" cx="224.4" cy="215.3" r="1.3"/>
			<circle fill="#8697CB" cx="216.5" cy="211.3" r="1.3"/>
			<circle fill="#8697CB" cx="219.2" cy="215.3" r="1.3"/>
			<circle fill="#8697CB" cx="185.9" cy="238.1" r="4.6"/>
			<circle fill="#8697CB" cx="237.4" cy="236.2" r="1.3"/>
			<circle fill="#8697CB" cx="232.2" cy="236.2" r="1.3"/>
			<circle fill="#8697CB" cx="240" cy="240.1" r="1.3"/>
			<circle fill="#8697CB" cx="234.8" cy="240.1" r="1.3"/>
			<circle fill="#8697CB" cx="227" cy="236.2" r="1.3"/>
			<circle fill="#8697CB" cx="229.6" cy="240.1" r="1.3"/>
			<circle fill="#8697CB" cx="221.8" cy="236.2" r="1.3"/>
			<circle fill="#8697CB" cx="224.4" cy="240.1" r="1.3"/>
			<circle fill="#8697CB" cx="216.5" cy="236.2" r="1.3"/>
			<circle fill="#8697CB" cx="219.2" cy="240.1" r="1.3"/>
		</g>
		<g>
			<g>
				<path fill="#48A0DC" d="M242.7,238.9c-0.1-5.1-4.1-9.3-9.1-9.3c-3.4,0-6.3,1.9-7.9,4.6c-0.5-0.2-1.1-0.3-1.7-0.3
					c-2.7,0-4.9,1.9-5.5,4.5c-2.3,1.1-3.9,3.5-3.9,6.3c0,3.8,3.1,7,6.8,7h14.1c0.1,0,0.2,0,0.2,0c0.1,0,0.2,0,0.2,0h5.6
					c3.5,0,6.3-2.9,6.3-6.5C247.9,242.1,245.6,239.5,242.7,238.9z"/>
				<path fill="#B1D3EF" d="M241.5,253.1h-5.6c-0.1,0-0.2,0-0.2,0c-0.1,0-0.1,0-0.2,0h-14.1c-4.5,0-8.1-3.7-8.1-8.3
					c0-3,1.6-5.7,4.1-7.2c0.9-2.9,3.6-5,6.6-5c0.4,0,0.8,0,1.2,0.1c2-2.8,5.1-4.4,8.5-4.4c5.4,0,9.8,4.2,10.4,9.6
					c3.1,1.1,5.2,4,5.2,7.4C249.2,249.6,245.8,253.1,241.5,253.1z M235.6,250.5h0.2h5.7c2.8,0,5-2.3,5-5.2c0-2.5-1.7-4.7-4.1-5.1
					l-1-0.2v-1.1c-0.1-4.4-3.6-8-7.8-8c-2.8,0-5.3,1.5-6.7,4l-0.5,0.9l-1-0.3c-0.4-0.1-0.9-0.2-1.3-0.2c-2,0-3.8,1.5-4.2,3.5
					l-0.1,0.6l-0.6,0.3c-1.9,0.9-3.2,3-3.2,5.1c0,3.1,2.5,5.7,5.5,5.7L235.6,250.5z"/>
			</g>
		</g>
	</g>
	<g>
		<path fill="#424A60" d="M73.3,159.1c-19.2,0-35.3,4.7-39.8,11c-10.4,2.5-17.5,6.6-18.3,11.3l0,0h-0.1v0.9V202v0.9v0.9v18.8v0.9
			v0.9v20.5h0.1c1.3,7.6,19.1,13.7,41,13.7c19.2,0,35.3-4.7,39.8-11c10.4-2.5,17.5-6.6,18.3-11.3h0.1v-20.7v-0.9V195v-0.9v-20.5
			C114.4,165.6,96,159.1,73.3,159.1z"/>
		<g>
			<path fill="#424A60" d="M56.2,237.9c-22.7,0-41.1-6.5-41.1-14.5v21.4h0.1c1.3,7.6,19.1,13.7,41,13.7s39.7-6.1,41-13.7h0.1v-21.4
				C97.3,231.3,78.9,237.9,56.2,237.9z"/>
			<path fill="#424A60" d="M15.1,222.4v0.9C15.1,223,15.2,222.7,15.1,222.4L15.1,222.4z"/>
			<path fill="#424A60" d="M97.2,222.4c0,0.3,0.1,0.6,0.1,0.9L97.2,222.4L97.2,222.4z"/>
		</g>
		<g>
			<path fill="#556080" d="M56.2,217.3c-22.7,0-41.1-6.5-41.1-14.5v21.4h0.1c1.3,7.6,19.1,13.7,41,13.7s39.7-6.1,41-13.7h0.1v-21.4
				C97.3,210.8,78.9,217.3,56.2,217.3z"/>
			<path fill="#556080" d="M15.1,201.9v0.9C15.1,202.5,15.2,202.2,15.1,201.9L15.1,201.9z"/>
			<path fill="#556080" d="M97.2,201.9c0,0.3,0.1,0.6,0.1,0.9L97.2,201.9L97.2,201.9z"/>
		</g>
		<ellipse fill="#7FABDA" cx="56.2" cy="182.2" rx="41.1" ry="14.5"/>
		<g>
			<path fill="#7383BF" d="M56.2,196.8c-22.7,0-41.1-6.5-41.1-14.5v21.3h0.1c1.3,7.6,19.1,13.7,41,13.7s39.7-6.1,41-13.7h0.1v-21.4
				C97.3,190.3,78.9,196.8,56.2,196.8z"/>
			<path fill="#7383BF" d="M15.1,181.4v0.9C15.1,181.9,15.2,181.7,15.1,181.4L15.1,181.4z"/>
			<path fill="#7383BF" d="M97.2,181.4c0,0.3,0.1,0.6,0.1,0.9L97.2,181.4L97.2,181.4z"/>
		</g>
		<path fill="#88C057" d="M73.3,159.1c-19.2,0-35.3,4.7-39.8,11c6.5-1.5,14.3-2.4,22.7-2.4c21.9,0,39.7,6.1,41,13.7h0.1v0.9v3.3
			c10.4-2.6,17.1-6.9,17.1-11.8C114.4,165.6,96,159.1,73.3,159.1z"/>
		<path fill="#61B872" d="M97.3,185.5v16.4v0.9v0.9v2.4c9.7-2.5,16.3-6.4,17-11h0.1v-21.4C114.4,178.5,107.7,182.8,97.3,185.5z"/>
		<path fill="#25AE88" d="M97.3,206v16.4v0.9v0.9v2.4c9.7-2.5,16.3-6.4,17-11h0.1v-21.4C114.4,199.1,107.7,203.4,97.3,206z"/>
		<path fill="#1A9172" d="M97.3,226.6v18.1h-0.1c-0.2,0.9-0.6,1.8-1.2,2.7c10.4-2.5,17.5-6.6,18.3-11.3h0.1v-21.4
			C114.4,219.6,107.7,223.9,97.3,226.6z"/>
	</g>
	<g>
		<path fill="none" stroke="#3050B7" stroke-miterlimit="10" stroke-dasharray="4.9971,4.9971" d="M471.8,465.3H260
			c-3.6,0-6.6-3-6.6-6.6V346.4c0-3.6,3-6.6,6.6-6.6h211.8c3.6,0,6.6,3,6.6,6.6v112.3C478.4,462.3,475.4,465.3,471.8,465.3z"/>
	</g>
	<g>
		<path fill="none" stroke="#3050B7" stroke-miterlimit="10" stroke-dasharray="5.0425,5.0425" d="M639.5,465.3H489.7
			c-3.4,0-6.2-2.8-6.2-6.2V346c0-3.4,2.8-6.2,6.2-6.2h149.8c3.4,0,6.2,2.8,6.2,6.2v113.1C645.7,462.5,642.9,465.3,639.5,465.3z"/>
	</g>
	<g>
		<path fill="none" stroke="#3050B7" stroke-miterlimit="10" stroke-dasharray="5.0299,5.0299" d="M243.2,465.3H112.9
			c-2.8,0-5-2.3-5-5V344.8c0-2.8,2.3-5,5-5h130.3c2.8,0,5,2.3,5,5v115.4C248.2,463,246,465.3,243.2,465.3z"/>
	</g>
</g>
</svg>
