<?xml version="1.0" encoding="utf-8"?>
<!-- Generator: Adobe Illustrator 18.0.0, SVG Export Plug-In . SVG Version: 6.00 Build 0)  -->
<!DOCTYPE svg PUBLIC "-//W3C//DTD SVG 1.1//EN" "http://www.w3.org/Graphics/SVG/1.1/DTD/svg11.dtd">
<svg version="1.1" id="Layer_1" xmlns="http://www.w3.org/2000/svg" xmlns:xlink="http://www.w3.org/1999/xlink" x="0px" y="0px"
	 viewBox="0 0 1008.6 582.4" enable-background="new 0 0 1008.6 582.4" xml:space="preserve">
<rect x="883.4" y="37.3" opacity="0.6" width="107.5" height="27.7"/>
<rect x="727.9" y="4.6" opacity="0.6" width="107.5" height="27.7"/>
<rect x="781.6" y="117.1" opacity="0.6" width="107.5" height="27.7"/>
<rect x="592.6" y="69.9" opacity="0.6" width="107.5" height="20.7"/>
<rect x="393.6" y="80.3" opacity="0.6" width="142.1" height="20.7"/>
<rect x="145.3" y="100.9" opacity="0.6" width="116.7" height="20.7"/>
<rect x="327.1" y="363.9" opacity="0.6" width="73.3" height="24.3"/>
<rect x="223.3" y="393.2" opacity="0.6" width="82" height="26.4"/>
<rect x="116.3" y="363.8" opacity="0.6" width="82" height="37.3"/>
<rect x="494" y="448.4" opacity="0.6" width="79.3" height="11.9"/>
<g>
	<text transform="matrix(1 0 0 1 156.6611 117.1251)" fill="#FFFFFF" font-family="'Oxygen-Regular'" font-size="15">Smart Firewall</text>
</g>
<g>
	<text transform="matrix(1 0 0 1 742.7798 22.406)" fill="#FFFFFF" font-family="'Oxygen-Regular'" font-size="15">Web Client</text>
</g>
<g>
	<text transform="matrix(1 0 0 1 891.4619 55.7073)" fill="#FFFFFF" font-family="'Oxygen-Regular'" font-size="15">Mobile Client</text>
</g>
<g>
	<text transform="matrix(1 0 0 1 397.7253 95.4062)" fill="#FFFFFF" font-family="'Oxygen-Regular'" font-size="15">Management Client</text>
</g>
<text transform="matrix(1 0 0 1 605.159 86.0364)" fill="#FFFFFF" font-family="'Oxygen-Regular'" font-size="15">Smart Client</text>
<g>
	<text transform="matrix(1 0 0 1 789.6171 136.0049)" fill="#FFFFFF" font-family="'Oxygen-Regular'" font-size="15">Mobile Server</text>
</g>
<g>
	<text transform="matrix(1 0 0 1 330.4654 379.3731)" fill="#FFFFFF" font-family="'Oxygen-Regular'" font-size="11.8794">Event Server</text>
</g>
<g>
	<text transform="matrix(1 0 0 1 227.1453 410.8856)" fill="#FFFFFF" font-family="'Oxygen-Regular'" font-size="15">SQL Server</text>
</g>
<g>
	<text transform="matrix(1 0 0 1 134.8439 376.8903)"><tspan x="0" y="0" fill="#FFFFFF" font-family="'Oxygen-Regular'" font-size="15">Active </tspan><tspan x="-8.7" y="18" fill="#FFFFFF" font-family="'Oxygen-Regular'" font-size="15">Directory</tspan></text>
</g>
<g>
	<text transform="matrix(1 0 0 1 498.6505 457.5739)" fill="#FFFFFF" font-family="'Oxygen-Regular'" font-size="9.9439">Service Channel</text>
</g>
<image overflow="visible" width="320" height="320" xlink:href="7E50AC03.jpg"  transform="matrix(0.2394 0 0 0.2394 650.7516 495.0881)">
</image>
<image overflow="visible" width="320" height="320" xlink:href="7E50AC0F.jpg"  transform="matrix(0.2394 0 0 0.2394 734.2981 495.0881)">
</image>
<image overflow="visible" width="320" height="320" xlink:href="7E50AC01.jpg"  transform="matrix(0.2394 0 0 0.2394 821.3149 495.0881)">
</image>
<polygon fill="none" stroke="#000000" stroke-miterlimit="10" points="131.9,272.5 204.1,272.5 204.1,193.1 206.9,193.1 
	206.9,272.5 463.9,272.5 463.9,185.5 465.9,185.5 465.9,272.5 651.4,272.5 651.4,166.4 653.4,166.4 653.4,272.5 837.3,272.5 
	837.3,185.5 841.3,185.5 841.3,284.9 810.1,284.9 810.1,337.3 807.7,337.3 807.7,285.2 714.6,285.2 714.6,337.3 711.9,337.3 
	711.9,285.5 474.9,285.5 474.9,300.6 473.1,300.6 473.1,285.2 266.4,285.2 266.4,315 264.6,313.2 264.6,284.7 154.6,284.7 
	154.6,301 152.6,299 152.6,285.1 131.9,285.1 "/>
<polygon fill="none" stroke="#000000" stroke-miterlimit="10" points="679.7,491.4 689.1,491.4 689.1,470.4 754,470.4 754,495.1 
	761.7,495.1 761.7,470.4 841.3,470.4 841.3,495.1 846,495.1 846,437.6 839.6,437.6 839.6,466.3 740.8,466.3 740.8,454 737,454 
	737,466.3 679.7,466.3 "/>
<polygon fill="none" stroke="#000000" stroke-miterlimit="10" points="456.7,361.1 400.7,361.1 400.7,389.7 393.5,389.7 
	393.5,395.2 400.7,395.2 400.7,480.1 425.1,480.1 543.3,480.1 543.3,460.3 543.3,389.7 514.3,360.7 "/>
<path fill="none" stroke="#000000" stroke-miterlimit="10" d="M777.6,164.8h-37.1V86h2.3v10.4h172.7v5H742.8v60h34.8
	C777.6,161.4,777.6,162.7,777.6,164.8z"/>
<path d="M433.3,111.6v56.6h64.2v-56.6H433.3z M489.9,160.7h-49.1v-41.5h49.1V160.7z M473,172l6,7.6h-27.2l6-7.6H473z M505,179.6
	h18.9v-49.1H505V179.6z M516.7,166.4c0,1.3-1,2.3-2.3,2.3s-2.3-1-2.3-2.3s1-2.3,2.3-2.3S516.7,165.1,516.7,166.4z M516.4,138v18.9
	h-3.8V138H516.4z"/>
<path d="M200.1,359.6V341h-56v18.7H200.1z M190.7,347.2c1.7,0,3.1,1.4,3.1,3.1s-1.4,3.1-3.1,3.1c-1.7,0-3.1-1.4-3.1-3.1
	S189,347.2,190.7,347.2z M166.4,347.2h4l-2.7,6.2h-4C163.8,353.4,166.4,347.2,166.4,347.2z M159.8,347.2h4l-2.7,6.2h-4L159.8,347.2z
	 M153,347.2h4l-2.7,6.2h-4L153,347.2z M137.8,350.1c-7-0.9-12.5-6.8-12.5-14.1c0-7,5.1-12.8,11.7-14c0.6-10.3,9-18.4,19.4-18.4
	c10.4,0,18.9,8.1,19.4,18.4c6.2,1.1,11,6.3,11.6,12.7h-6.2c-0.9-6.6-8.3-7.3-11.4-7.5c0.4-6.1-1.7-17.4-13.5-17.4
	c-13.8,0-13.6,14.8-13.5,17.4c-2.9-0.1-11.5,1.1-11.5,8.8c0,3.8,2.7,7,6.2,7.8C137.8,343.9,137.8,350.1,137.8,350.1z"/>
<path d="M964.9,82.5c0-3.8-3.1-6.9-6.9-6.9h-34.6c-3.8,0-6.9,3.1-6.9,6.9v69.2c0,3.8,3.1,6.9,6.9,6.9H958c3.8,0,6.9-3.1,6.9-6.9
	V82.5z M935.5,82.5h10.4c1,0,1.7,0.8,1.7,1.7c0,1-0.8,1.7-1.7,1.7h-10.4c-1,0-1.7-0.8-1.7-1.7C933.8,83.3,934.6,82.5,935.5,82.5z
	 M940.7,151.7c-1.9,0-3.5-1.5-3.5-3.5c0-1.9,1.5-3.5,3.5-3.5c1.9,0,3.5,1.5,3.5,3.5C944.2,150.2,942.6,151.7,940.7,151.7z
	 M958,141.3h-34.6V92.8H958V141.3z"/>
<path d="M620,93.1v44.2h59V93.1H620z M673.1,131.4h-47.2V99h47.2V131.4z M655.4,140.3l4.7,5.9h-21.2l4.7-5.9H655.4z M620,149.1v14.7
	h59v-14.7H620z M648,158.3c-1,0-1.8-0.8-1.8-1.8c0-1,0.8-1.8,1.8-1.8c1,0,1.8,0.8,1.8,1.8C649.8,157.5,649,158.3,648,158.3z
	 M673.1,158h-17.7V155h17.7V158z"/>
<g>
	<circle fill="none" cx="761.7" cy="75.7" r="2.4"/>
	<path d="M767.6,83.8h-11.8c-0.3,3.4-2.3,6.2-5.9,7.1v2.4h23.6v-2.4C769.8,90,767.8,87.2,767.6,83.8z"/>
	<path d="M789.3,37.4c-0.4-0.4-1-0.7-1.7-0.7h-51.8c-0.6,0-1.2,0.2-1.7,0.7c-0.4,0.4-0.7,1-0.7,1.7v40.1c0,0.6,0.2,1.2,0.7,1.7
		c0.4,0.4,1,0.7,1.7,0.7h51.8c0.6,0,1.2-0.2,1.7-0.7c0.4-0.4,0.7-1,0.7-1.7V39C789.9,38.4,789.7,37.8,789.3,37.4z M761.7,78.1
		c-1.3,0-2.4-1.1-2.4-2.4c0-1.3,1.1-2.4,2.4-2.4c1.3,0,2.4,1.1,2.4,2.4C764,77,763,78.1,761.7,78.1z M785.2,69.7h-47.1V41.4h47.1
		V69.7z"/>
</g>
<path d="M198,174.1v14.3h-28.6v-14.3H198z M226.6,174.1v14.3h-25.8v-14.3H226.6z M238,156.9v14.3h-20v-14.3H238z M189.4,156.9v14.3
	h-20v-14.3H189.4z M215.1,156.9v14.3h-22.9v-14.3H215.1z M198,139.7V154h-28.6v-14.3H198z M226.6,139.7V154h-25.8v-14.3H226.6z
	 M189.4,125.4v11.4h-20v-11.4H189.4z M212.3,125.4v11.4h-20v-11.4H212.3z"/>
<path d="M901.6,394.1H773.7v37.3h127.9V394.1z M885.6,418.1c-2.9,0-5.3-2.4-5.3-5.3c0-2.9,2.4-5.3,5.3-5.3c2.9,0,5.3,2.4,5.3,5.3
	C890.9,415.7,888.5,418.1,885.6,418.1z M869.6,418.1c-2.9,0-5.3-2.4-5.3-5.3c0-2.9,2.4-5.3,5.3-5.3c2.9,0,5.3,2.4,5.3,5.3
	C874.9,415.7,872.5,418.1,869.6,418.1z M853.6,418.1c-2.9,0-5.3-2.4-5.3-5.3c0-2.9,2.4-5.3,5.3-5.3c2.9,0,5.3,2.4,5.3,5.3
	C858.9,415.7,856.5,418.1,853.6,418.1z M890.9,383.5H784.3l21.3-37.3h63.9L890.9,383.5z"/>
<rect x="823.6" y="321" opacity="0.6" width="82" height="62.7"/>
<g>
	<text transform="matrix(1 0 0 1 837.5306 337.2326)"><tspan x="0" y="0" fill="#FFFFFF" font-family="'Oxygen-Regular'" font-size="15">Failover</tspan><tspan x="-9.7" y="18" fill="#FFFFFF" font-family="'Oxygen-Regular'" font-size="15">Recording </tspan><tspan x="4.9" y="36" fill="#FFFFFF" font-family="'Oxygen-Regular'" font-size="15">Server</tspan></text>
</g>
<path d="M762.6,380.9h-98v16.3h98V380.9z M672.8,393.1l3.5-8.2h5.2l-3.5,8.2H672.8z M681.2,393.1l3.5-8.2h5.2l-3.5,8.2H681.2z
	 M689.7,393.1l3.5-8.2h5.2l-3.5,8.2H689.7z M698.1,393.1l3.5-8.2h5.2l-3.5,8.2H698.1z M711.7,393.1h-5.2l3.5-8.2h5.2
	C715.3,385,711.7,393.1,711.7,393.1z M750.4,393.1c-2.3,0-4.1-1.8-4.1-4.1c0-2.3,1.8-4.1,4.1-4.1c2.3,0,4.1,1.8,4.1,4.1
	C754.4,391.3,752.6,393.1,750.4,393.1z M762.6,405.4h-98v16.3h98V405.4z M672.8,417.6l3.5-8.2h5.2l-3.5,8.2H672.8z M681.2,417.6
	l3.5-8.2h5.2l-3.5,8.2H681.2z M689.7,417.6l3.5-8.2h5.2l-3.5,8.2H689.7z M698.1,417.6l3.5-8.2h5.2l-3.5,8.2H698.1z M711.7,417.6
	h-5.2l3.5-8.2h5.2C715.3,409.4,711.7,417.6,711.7,417.6z M750.4,417.6c-2.3,0-4.1-1.8-4.1-4.1c0-2.3,1.8-4.1,4.1-4.1
	c2.3,0,4.1,1.8,4.1,4.1C754.4,415.8,752.6,417.6,750.4,417.6z M762.6,429.9h-98v16.3h98V429.9z M672.8,442.1l3.5-8.2h5.2l-3.5,8.2
	H672.8z M681.2,442.1l3.5-8.2h5.2l-3.5,8.2H681.2z M689.7,442.1l3.5-8.2h5.2l-3.5,8.2H689.7z M698.1,442.1l3.5-8.2h5.2l-3.5,8.2
	H698.1z M711.7,442.1h-5.2l3.5-8.2h5.2C715.3,433.9,711.7,442.1,711.7,442.1z M750.4,442.1c-2.3,0-4.1-1.8-4.1-4.1
	c0-2.3,1.8-4.1,4.1-4.1c2.3,0,4.1,1.8,4.1,4.1C754.4,440.3,752.6,442.1,750.4,442.1z M754.4,372.7h-81.6l16.3-24.5h49L754.4,372.7z"
	/>
<path d="M297.2,342.8H227v11.7h70.2V342.8z M232.8,351.5l2.5-5.9h3.7l-2.5,5.9H232.8z M238.9,351.5l2.5-5.9h3.7l-2.5,5.9H238.9z
	 M244.9,351.5l2.5-5.9h3.7l-2.5,5.9H244.9z M250.9,351.5l2.5-5.9h3.7l-2.5,5.9H250.9z M260.7,351.5H257l2.5-5.9h3.7
	C263.2,345.7,260.7,351.5,260.7,351.5z M288.4,351.5c-1.6,0-2.9-1.3-2.9-2.9s1.3-2.9,2.9-2.9c1.6,0,2.9,1.3,2.9,2.9
	S290,351.5,288.4,351.5z M297.2,360.3H227V372h70.2V360.3z M232.8,369.1l2.5-5.9h3.7l-2.5,5.9H232.8z M238.9,369.1l2.5-5.9h3.7
	l-2.5,5.9H238.9z M244.9,369.1l2.5-5.9h3.7l-2.5,5.9H244.9z M250.9,369.1l2.5-5.9h3.7l-2.5,5.9H250.9z M260.7,369.1H257l2.5-5.9h3.7
	C263.2,363.2,260.7,369.1,260.7,369.1z M288.4,369.1c-1.6,0-2.9-1.3-2.9-2.9c0-1.6,1.3-2.9,2.9-2.9c1.6,0,2.9,1.3,2.9,2.9
	C291.3,367.8,290,369.1,288.4,369.1z M297.2,377.9H227v11.7h70.2V377.9z M232.8,386.6l2.5-5.9h3.7l-2.5,5.9H232.8z M238.9,386.6
	l2.5-5.9h3.7l-2.5,5.9H238.9z M244.9,386.6l2.5-5.9h3.7l-2.5,5.9H244.9z M250.9,386.6l2.5-5.9h3.7l-2.5,5.9H250.9z M260.7,386.6H257
	l2.5-5.9h3.7C263.2,380.8,260.7,386.6,260.7,386.6z M288.4,386.6c-1.6,0-2.9-1.3-2.9-2.9c0-1.6,1.3-2.9,2.9-2.9
	c1.6,0,2.9,1.3,2.9,2.9C291.3,385.3,290,386.6,288.4,386.6z M291.3,336.9h-58.5l11.7-17.6h35.1L291.3,336.9z"/>
<rect x="679.7" y="331.6" opacity="0.6" width="82" height="49.7"/>
<g>
	<text transform="matrix(1 0 0 1 687.1079 352.0657)"><tspan x="0" y="0" fill="#FFFFFF" font-family="'Oxygen-Regular'" font-size="15">Recording </tspan><tspan x="14.6" y="18" fill="#FFFFFF" font-family="'Oxygen-Regular'" font-size="15">Server</tspan></text>
</g>
<path d="M514.1,389.2c-10.2,0-18.5,8.3-18.5,18.5c0,10.2,8.3,18.5,18.5,18.5c10.2,0,18.5-8.3,18.5-18.5
	C532.6,397.5,524.3,389.2,514.1,389.2z M510.6,418l2.6-8.2H508l9.4-12.3l-3.2,8.2h5.8L510.6,418z M516.2,352.2h-73.9l16.4-24.6h41.1
	L516.2,352.2z M514.1,381c3.6,0,7.1,0.7,10.3,2.1v-22.6H434v28.8h60.9C499.8,384.2,506.6,381,514.1,381z M442.3,381l3.5-12.3h5.2
	l-3.5,12.3H442.3z M450.7,381l3.5-12.3h5.2L456,381H450.7z M459.2,381l3.5-12.3h5.2l-3.5,12.3H459.2z M467.7,381l3.5-12.3h5.2
	L473,381H467.7z M487.4,407.7c0-3.6,0.7-7.1,2.1-10.3H434v28.8h60.9C490.3,421.4,487.4,414.9,487.4,407.7z M442.3,418l3.5-12.3h5.2
	l-3.5,12.3H442.3z M450.7,418l3.5-12.3h5.2L456,418H450.7z M459.2,418l3.5-12.3h5.2l-3.5,12.3H459.2z M473,418h-5.2l3.5-12.3h5.2
	C476.5,405.6,473,418,473,418z"/>
<rect x="433.1" y="300.6" opacity="0.6" width="103.3" height="41"/>
<g>
	<text transform="matrix(1 0 0 1 438.4171 316.3504)"><tspan x="0" y="0" fill="#FFFFFF" font-family="'Oxygen-Regular'" font-size="15">Management</tspan><tspan x="23.1" y="18" fill="#FFFFFF" font-family="'Oxygen-Regular'" font-size="15">Server</tspan></text>
</g>
<g>
	<path d="M338.5,384.9v18h54v-18H338.5z M348.3,396.9h-3.8l2.6-6h3.8L348.3,396.9z M354.9,396.9h-3.8l2.6-6h3.8L354.9,396.9z
		 M361.3,396.9h-3.8l2.6-6h3.8L361.3,396.9z M383.5,396.9c-1.7,0-3-1.3-3-3c0-1.7,1.3-3,3-3c1.7,0,3,1.3,3,3
		C386.5,395.5,385.1,396.9,383.5,396.9z"/>
</g>
<g>
	<path d="M376.5,448.6v18h54v-18H376.5z M386.3,460.6h-3.8l2.6-6h3.8L386.3,460.6z M392.9,460.6h-3.8l2.6-6h3.8L392.9,460.6z
		 M399.3,460.6h-3.8l2.6-6h3.8L399.3,460.6z M421.5,460.6c-1.7,0-3-1.3-3-3c0-1.7,1.3-3,3-3c1.7,0,3,1.3,3,3
		C424.5,459.2,423.1,460.6,421.5,460.6z"/>
</g>
<rect x="400.8" y="435.7" opacity="0.6" width="59.3" height="16.4"/>
<g>
	<text transform="matrix(1 0 0 1 405.2219 447.5283)" fill="#FFFFFF" font-family="'Oxygen-Regular'" font-size="10.8432">Log Server</text>
</g>
</svg>
