<?xml version="1.0" encoding="utf-8"?>
<!-- Generator: Adobe Illustrator 18.0.0, SVG Export Plug-In . SVG Version: 6.00 Build 0)  -->
<!DOCTYPE svg PUBLIC "-//W3C//DTD SVG 1.1//EN" "http://www.w3.org/Graphics/SVG/1.1/DTD/svg11.dtd">
<svg version="1.1" id="Layer_1" xmlns="http://www.w3.org/2000/svg" xmlns:xlink="http://www.w3.org/1999/xlink" x="0px" y="0px"
	 viewBox="0 24 960 568" enable-background="new 0 24 960 568" xml:space="preserve">
<path fill="none" stroke="#148DCD" stroke-width="14" stroke-miterlimit="10" d="M583,225c0,0-286,335-175,355s321-186.9,380-263
	S951,109,914,52S618.1,181.8,583,225z"/>
<path fill="#148DCD" d="M697.5,317.4c-10.8,11.3-25.9,12.4-37.4,6.9c-9.8-4.6-8.3-13.6-9-26.7l-22.2-2c-17.4,98.3,113.2,58.6,97-7.5
	c-8-32.7-50-22.6-35.7-55.7c5-11.8,5.3-13.6,17.8-12.4c19.6,1.8,12.5,12.5,21.5,27.1l21.8,0.8c2-25.3-1.6-42.1-24.4-48.9
	c-52.2-15.7-81.7,42.1-61.3,71.1C682.3,294,701.4,284.2,697.5,317.4z"/>
<path fill="#148DCD" d="M863.9,314.3l23.3,18.4c-3.3,8.4-8.4,14.2-21.5,13.5c-17.3-0.8-13.2-7.1-19.6-18.5
	c-12.9-1.2-23.3-4.8-24.4,7.9c-0.7,8.2,5.4,18.7,11.2,23.3c44.3,35.7,119.4-25.6,62.6-59.5c-12.4-7.4-18.1-5.3-20.6-18.7
	c6.1-9.5,16.3-11.6,27.1-4.4c17.7,11.7-1.6,12.1,30.9,10.5c4.5-48.2-79.5-50.5-84.7,6.3C847,305.9,854.1,306.7,863.9,314.3z"/>
<path fill="#ED1C24" d="M297.2,348.5c0,0,23.7-125.8,47.6-153.4c0.7-0.8,2-2.1,2.8-2.7c6.4-5.2,5.9-8.6,25.9-14.8
	c4.8-1.4,6.1-2,14.6-1.2c15.3,2.3,22.3,18.2,3.9,19.6l-31.7,2.5c-3.4,4.1-14.4,45.9-17.7,62.9c-0.4,2.2,1.8,3.9,3.8,3
	c9.5-4.3,18.1-15.7,29-17.4c8.9-1.4,17.6,4.1,17.1,13.3c-0.7,12-4.8,23.2-9,34.6c-3.9,10.6-8,21.4-9.3,33.4
	c-0.1,1.3,1.2,2.3,2.4,1.8c4-1.7,10.4-4.9,15-7.2c2.1-1.1,4.4,1.1,3.4,3.3c-2.5,5.6-7,13.6-11.5,16.9c-7,5.3-15.3,8.6-22.9,9.6
	c-3.7,0.5-7.2-1.8-8.2-5.4c-2.9-10.4,1.6-31.1,6.1-44.8c3.8-11.3,7.8-23,8.2-35.4c-29.1,6.1-45.3,77.2-48,82.4
	C318.5,349.9,297,349.2,297.2,348.5z M245.9,331.8c-7.9-2.5-11.6-13.1-2.7-42.2c4.6-14.9,20.1-30.4,51.7-31.1
	c2.7-0.1,4.9-2.3,4.5-5.1c-0.7-4.5-7.6-5-10.1-5.9c-22.2-4.1-36.3,4.4-43.9,10.8c-11.8,10.1-22.2,25.7-27.4,47.3
	c-2.1,9-2.7,16.4-2.2,22.5c1,10.8,10.2,19,21.1,19c28.1-0.1,52.5-16.7,49.3-25.3c-3.9-2.6-5.7-0.1-9.3,1.7
	C276.8,323.6,254.5,334.4,245.9,331.8z M163.5,281.6c-1.2,3.3-2.2,6.7-2.5,9.5c15.4-2.3,23-9.7,25.7-16.9c1.6-4.2,1.5-8.3,0.1-11.4
	c-1.2-2.9-3.4-4.6-6-4.4c-3.3,0.3-7.2,3.1-11.3,10.1C167.8,271.8,165.3,276.6,163.5,281.6L163.5,281.6z M182.3,323
	c4.9-3.3,14.2-9.3,19.4-8.7c2.6,0.5,6,3.1,0.2,10.4l0,0l0,0c-12.3,12.3-25.6,20.8-32.1,22.2c-7.8,1.6-29.1,2.8-32.7-2.6
	c-8.3-8.3-5.2-25.7-4.1-33.6c1.1-7.9,3.4-15.5,6.8-22.2c3.7-7.2,9.9-17,14-23.4c7.8-12.2,31.6-28.1,48.7-19.4
	c5.4,2.7,8.4,8.5,8.1,14.5c-1.2,23.4-19.9,31.5-34.9,38c-4.1,1.8-8,3.4-11,5.3c-3.9,2.3-8.2,21.8-6.5,23.1c2,1.6,5.2,2.6,9.7,2.5
	C173.6,328.9,177.7,326.2,182.3,323L182.3,323z M410.1,348.4c3.9,4,9.7,5.7,15.1,4.3c1.5-0.4,2.9-1,4-1.9
	c4.3-3.4,20.2-60.5,22.5-63.8c1.7-2.4,12.9-10.6,20.1-15.3c2.2-1.4,4.9,0.5,4.4,3.1c-3.3,14.5-11.2,49.4-10.9,67.3
	c0.1,6.2,4.6,11.7,10.7,12.6c3.2,0.5,5.9-0.5,14-5.2c0.4-0.2,0.7-0.4,1-0.7c12.3-8.4,9.9-10.6,15.4-17.6c3.4-4.4-1.2-10.5-6.3-8.4
	c-2,0.8-4.2,1.9-6.8,3.6c-0.3,0.4-1.6,1.5-3.1,2.6c-1.2,0.9-2.7-0.2-2.4-1.6c3.2-12,14.8-47.1,16.2-54.3c1.6-8.3,5.3-19.7-1.9-24.3
	c-18.1-11.8-44,12.2-46.5,15.1l-6.3-18c-0.1-0.5-0.5-1-1.1-1.2c-4.8-2.7-36.9,10.3-41.4,18.4c-1.2,2-1.4,4.5-1.6,9l0,0
	c-0.7,7.8,16.3-2.2,18-2.9l0,0c1.6-0.7,3.3,0.8,3,2.5L409.7,347C409.6,347.5,409.7,348,410.1,348.4L410.1,348.4z M579.9,302.2
	c2.7-15.1,0.7-31.6-9.8-41c-11.6,1.1-19.7,9.9-24.5,21.1c-2.9,6.7-4.6,14.3-5.3,21.7s-0.1,14.6,1.4,20.3c1.9,7.1,5.3,12.1,10.2,13.1
	c5.4,1,10.9-1.9,15.5-7.4c2.9-3.4,5.4-7.6,7.6-12.4C577.4,313.1,579,307.8,579.9,302.2L579.9,302.2z M515.4,310.1
	c2.9-23.8,18.2-50.4,45.8-60.6c16.1-6,27.5-3.9,34.9,2.6c4.4,3.8,7.2,9.4,8.9,15.7c1.5,6.3,1.8,13.6,1,21.1
	c-2.9,23.8-17.7,50.9-41.3,61.1c-17.3,7.5-30.1,5.6-38.4-1.8c-4.6-4.1-7.8-9.7-9.5-16.3C514.9,325.3,514.5,317.9,515.4,310.1
	L515.4,310.1z M37.9,276.7c0.1,4.1-17.2,8.1-18.7,6.2c-6-10.9-7.1-23.3-4.6-34.7c2.6-12.7,9.5-24.2,18.4-31.6
	c30.4-24.8,65.4-18.8,90.3-14.6c11.8,2,21.5,3.7,27,1.4c5.2-2.2,6.7-8.7,7.9-13.9c0.8-3.4,8.4-9.5,14.3-3.7c2.7,2.7,3.8,5.9,3.7,9
	c-0.1,3.8-2.9,8.4-6.1,12.9c-8.6,9-25.6,9.8-40.3,10.3c-5,0.3-9.7,0.4-13.8,1L86.1,336l26.3-0.7c0.1,0,0.1,0,0.3,0
	c0.7,0.1,1.1,0.7,1,1.4c-2.3,14-10.8,13.6-28.5,12.4c-11.2-0.7-26.3-1.6-45.9,1c-0.1,0-0.3,0-0.4,0c-0.7-0.1-1.1-0.7-1-1.4
	c2-12.1,6.1-12.9,11.4-13.8c3.9-0.7,8.7-1.5,13.8-9.7c1.9-3,11-34.7,18.7-63.7c5.4-20.7,9.9-39.9,10.2-46.2
	c-6-0.3-11.8-0.3-17.6,0.3c-6.1,0.4-12.1,1.4-18,3c-11.2,3.1-21.1,15.7-21.5,16.2c-11.8,14.8-5,26.3-0.4,34
	C36.2,272,37.9,274.6,37.9,276.7z M37.9,276.7c0.1,4.1-16.3,10.5-18.7,6.2"/>
<g>
	<path fill="none" d="M782.6,251.4l-6.9,56.5c-0.3,2.7,3,4.1,4.8,2c18.6-22.4,32.3-39,45.2-56.7"/>
	<path fill="#118CCC" d="M775.7,303.6l5.6-41.7c0.7-5-3.2-9.5-8.3-9.5l-3.3,0c-4.2,0-7.8,3-8.4,7.2c-3.5,24.2-6.6,51.2-8.7,74.8
		c-1.5,17-15.7,28.1-21.9,36.4c-2.1,2.9,4.7,9.5,8.8,10.6c0.5,0.1,1.1,0.1,1.6-0.1c1.2-0.4,3.5-1.4,5.7-3.6
		c15.6-14.9,67.5-77.6,89.3-111.4c3.7-5.8,0.2-12.9-6.5-12.9l0,0c-2.5,0-4.9,1.2-6.4,3.3c-11.3,15.4-23.9,31.4-39.7,50.5
		C780.7,310.5,775.1,308,775.7,303.6z"/>
</g>
</svg>
